# Blender 4.5.7 LTS
# www.blender.org
mtllib cannon.mtl
o blaster-r
v -0.060000 0.037500 -0.078206
v 0.060000 0.037500 -0.078206
v -0.060000 0.142500 -0.078206
v 0.060000 0.142500 -0.078206
v 0.060000 0.017500 -0.058206
v -0.060000 0.017500 -0.058206
v 0.060000 0.162500 -0.058206
v -0.060000 0.162500 -0.058206
v -0.040000 0.076190 -0.135326
v 0.040000 0.076190 -0.135326
v -0.040000 0.103810 -0.135326
v 0.040000 0.103810 -0.135326
v 0.040000 0.076190 -0.175326
v -0.040000 0.076190 -0.175326
v -0.040000 0.103810 -0.175326
v 0.040000 0.103810 -0.175326
v 0.060000 0.056190 -0.175326
v -0.060000 0.056190 -0.175326
v -0.060000 0.123810 -0.175326
v 0.060000 0.123810 -0.175326
v -0.060000 0.123810 -0.231086
v -0.080000 0.142500 -0.238206
v -0.060000 0.056190 -0.205326
v 0.060000 0.123810 -0.231086
v -0.080000 0.037500 -0.198206
v 0.080000 0.142500 -0.238206
v 0.080000 0.037500 -0.198206
v 0.060000 0.056190 -0.205326
v 0.060000 0.152500 -0.158206
v 0.060000 0.152500 -0.103206
v 0.020000 0.152500 -0.158206
v 0.020000 0.152500 -0.103206
v 0.060000 0.142500 -0.158206
v 0.060000 0.142500 -0.103206
v 0.020000 0.142500 -0.103206
v 0.020000 0.142500 -0.158206
v -0.020000 0.152500 -0.158206
v -0.020000 0.152500 -0.103206
v -0.060000 0.152500 -0.158206
v -0.060000 0.152500 -0.103206
v -0.020000 0.142500 -0.158206
v -0.020000 0.142500 -0.103206
v -0.060000 0.142500 -0.103206
v -0.060000 0.142500 -0.158206
v 0.080000 0.037500 0.002114
v -0.080000 0.037500 0.002114
v 0.080000 0.142500 0.002114
v -0.080000 0.142500 0.002114
v -0.088100 0.090000 -0.174156
v -0.088100 0.098591 -0.170598
v -0.088100 0.081409 -0.170598
v -0.088100 0.077850 -0.162006
v -0.088100 0.102150 -0.162006
v -0.088100 0.081409 -0.153415
v -0.088100 0.098591 -0.153415
v -0.088100 0.090000 -0.149856
v -0.080000 0.078545 -0.150551
v -0.080000 0.073800 -0.162006
v -0.080000 0.090000 -0.178206
v -0.080000 0.101455 -0.173461
v -0.080000 0.078545 -0.173461
v -0.080000 0.106200 -0.162006
v -0.080000 0.090000 -0.145806
v -0.080000 0.101455 -0.150551
v 0.088100 0.090000 -0.174156
v 0.088100 0.098591 -0.170598
v 0.088100 0.081409 -0.170598
v 0.088100 0.077850 -0.162006
v 0.088100 0.102150 -0.162006
v 0.088100 0.081409 -0.153415
v 0.088100 0.098591 -0.153415
v 0.088100 0.090000 -0.149856
v 0.080000 0.078545 -0.150551
v 0.080000 0.073800 -0.162006
v 0.080000 0.090000 -0.178206
v 0.080000 0.101455 -0.173461
v 0.080000 0.078545 -0.173461
v 0.080000 0.106200 -0.162006
v 0.080000 0.090000 -0.145806
v 0.080000 0.101455 -0.150551
vn 0.4655 -0.0953 -0.8799
vn -0.3650 0.3563 -0.8602
vn 0.6575 -0.0877 -0.7483
vn -0.6597 0.7507 -0.0354
vn 0.6572 0.5917 -0.4669
vn -0.4518 -0.8241 -0.3418
vn -0.6575 -0.5911 -0.4672
vn 0.6597 -0.7506 -0.0375
vn 0.6246 -0.7710 -0.1242
vn -0.7445 0.6571 -0.1182
vn 0.7067 0.0343 -0.7067
vn -0.7067 -0.0343 -0.7067
vn 0.2336 0.6741 -0.7008
vn -0.0380 -0.5804 -0.8134
vn -0.5748 -0.5748 -0.5824
vn -0.1228 0.5785 -0.8064
vn 0.5773 0.5773 -0.5774
vn -0.5774 0.5773 -0.5774
vn 0.5774 -0.5774 -0.5773
vn 0.2154 -0.5797 -0.7859
vn -0.5606 0.4699 -0.6819
vn -0.2154 -0.5797 -0.7859
vn 0.4022 -0.0222 -0.9153
vn -0.5989 -0.6594 -0.4544
vn 0.5606 0.4699 -0.6819
vn 0.5989 -0.6594 -0.4544
vn -0.4022 -0.0222 -0.9153
vn -0.2742 0.9615 -0.0164
vn 0.6994 0.6995 -0.1467
vn -0.1135 0.7025 -0.7025
vn 0.1135 0.7025 0.7025
vn 0.3287 -0.8889 -0.3191
vn 0.3535 -0.8660 0.3536
vn -0.3287 -0.8889 0.3191
vn -0.3535 -0.8660 -0.3536
vn 0.2742 0.9615 0.0164
vn -0.6994 0.6995 0.1467
vn 0.5773 0.5774 0.5774
vn -0.5773 -0.5774 0.5773
vn 0.5774 -0.5774 0.5774
vn -0.5773 0.5774 0.5774
vn -0.9106 0.4133 -0.0000
vn -0.8164 -0.5364 0.2142
vn -0.9050 -0.2059 0.3723
vn -0.8162 0.5261 0.2387
vn -0.8130 0.3045 0.4964
vn -0.0570 -0.0000 -0.9984
vn -0.8160 -0.1946 -0.5443
vn -0.5931 -0.0000 -0.8052
vn -0.7127 0.6348 -0.2986
vn -0.0610 0.9963 0.0608
vn -0.0567 0.7060 -0.7060
vn -0.0570 0.7060 0.7059
vn -0.0611 -0.6615 -0.7475
vn -0.0611 -0.9963 -0.0608
vn -0.0611 0.0608 0.9963
vn -0.0567 -0.7060 0.7060
vn 0.5572 -0.0000 0.8304
vn 0.0611 0.0608 0.9963
vn 0.8162 -0.2002 0.5420
vn 0.0566 -0.7060 0.7060
vn 0.8162 0.5261 0.2387
vn 0.7246 0.6561 0.2107
vn 0.0570 0.7059 0.7060
vn 0.0610 0.9963 0.0608
vn 0.8160 -0.5442 -0.1946
vn 0.7246 -0.6561 -0.2107
vn 0.0611 -0.6615 -0.7475
vn 0.0611 -0.9963 -0.0608
vn 0.0570 -0.0000 -0.9984
vn 0.0567 0.7060 -0.7060
vn 0.7127 0.2986 -0.6348
vn 0.8154 0.2648 -0.5147
vn -0.5773 -0.5774 -0.5774
vt 0.343750 0.302586
vt 0.343750 0.447414
vt 0.343750 0.475000
vt 0.343750 0.275000
vt 0.218750 0.151305
vt 0.218750 0.098695
vt 0.218750 0.060600
vt 0.218750 0.189400
vt 0.593750 0.189400
vt 0.593750 0.225000
vt 0.593750 0.060600
vt 0.593750 0.025000
vt 0.593750 0.175000
vt 0.593750 0.075000
vt 0.343750 0.225000
vt 0.343750 0.025000
vt 0.343750 0.162500
vt 0.343750 0.087500
vt 0.343750 0.098484
vt 0.343750 0.151516
vt 0.343750 0.125000
vt 0.343750 0.175000
vt 0.343750 0.160355
vt 0.343750 0.089645
vt 0.343750 0.075000
vt 0.343750 0.060600
vt 0.343750 0.189400
s 1
usemtl colormap
f 2/1/1 3/2/2 4/2/3
f 4/2/3 8/3/4 7/3/5
f 7/3/5 2/1/1 4/2/3
f 6/4/6 3/2/2 1/1/7
f 1/1/7 5/4/8 6/4/6
f 11/5/9 10/6/10 9/6/11
f 10/6/10 11/5/9 12/5/12
f 11/5/9 14/6/13 15/5/14
f 14/6/13 11/5/9 9/6/11
f 11/5/9 16/5/15 12/5/12
f 16/5/15 11/5/9 15/5/14
f 10/6/10 16/5/15 13/6/16
f 18/7/17 14/6/13 17/7/18
f 14/6/13 18/7/17 19/8/19
f 14/6/13 19/8/19 15/5/14
f 15/5/14 19/8/19 16/5/15
f 21/9/20 22/10/21 24/9/22
f 23/11/23 25/12/24 22/10/21
f 26/10/25 24/9/22 22/10/21
f 27/12/26 28/11/27 26/10/25
f 28/11/27 27/12/26 23/11/23
f 31/13/28 30/13/29 29/13/30
f 30/13/29 31/13/28 32/13/31
f 30/13/29 33/14/32 29/13/30
f 33/14/32 30/13/29 34/14/33
f 30/13/29 35/14/34 34/14/33
f 35/14/34 30/13/29 32/13/31
f 35/14/34 31/13/28 36/14/35
f 38/13/36 39/13/37 40/13/31
f 41/14/32 38/13/36 42/14/33
f 38/13/36 43/14/34 42/14/33
f 43/14/34 38/13/36 40/13/31
f 43/14/34 39/13/37 44/14/35
f 39/13/37 41/14/32 44/14/35
f 47/15/38 46/16/39 45/16/40
f 46/16/39 47/15/38 48/15/41
f 22/15/21 47/15/38 26/15/25
f 46/16/39 27/16/26 45/16/40
f 27/16/26 46/16/39 25/16/24
f 25/16/24 48/15/41 22/15/21
f 48/15/41 25/16/24 46/16/39
f 53/17/42 52/18/43 54/19/44
f 53/17/42 54/19/44 55/20/45
f 55/20/45 54/19/44 56/21/46
f 59/21/47 51/19/48 49/21/49
f 50/20/50 62/22/51 60/23/52
f 62/22/51 50/20/50 53/17/42
f 56/21/46 64/23/53 55/20/45
f 52/18/43 61/24/54 58/25/55
f 61/24/54 52/18/43 51/19/48
f 53/17/42 64/23/53 62/22/51
f 64/23/53 53/17/42 55/20/45
f 63/21/56 54/19/44 57/24/57
f 54/19/44 63/21/56 56/21/46
f 72/21/58 79/21/59 70/19/60
f 73/24/61 70/19/60 79/21/59
f 71/20/62 69/17/63 80/23/64
f 78/22/65 80/23/64 69/17/63
f 67/19/66 68/18/67 77/24/68
f 74/25/69 77/24/68 68/18/67
f 71/20/62 80/23/64 72/21/58
f 79/21/59 72/21/58 80/23/64
f 77/24/68 75/21/70 67/19/66
f 76/23/71 66/20/72 75/21/70
f 73/24/61 74/25/69 70/19/60
f 72/21/58 70/19/60 71/20/62
f 71/20/62 70/19/60 69/17/63
f 70/19/60 68/18/67 69/17/63
f 69/17/63 68/18/67 66/20/72
f 68/18/67 67/19/66 66/20/72
f 65/21/73 66/20/72 67/19/66
f 3/2/2 2/1/1 1/1/7
f 8/3/4 4/2/3 3/2/2
f 2/1/1 7/3/5 5/4/8
f 3/2/2 6/4/6 8/3/4
f 5/4/8 1/1/7 2/1/1
f 14/6/13 10/6/10 13/6/16
f 10/6/10 14/6/13 9/6/11
f 16/5/15 10/6/10 12/5/12
f 13/6/16 17/7/18 14/6/13
f 17/7/18 13/6/16 20/8/74
f 20/8/74 13/6/16 16/5/15
f 20/8/74 16/5/15 19/8/19
f 23/11/23 22/10/21 21/9/20
f 25/12/24 23/11/23 27/12/26
f 26/10/25 28/11/27 24/9/22
f 31/13/28 35/14/34 32/13/31
f 31/13/28 33/14/32 36/14/35
f 33/14/32 31/13/28 29/13/30
f 39/13/37 38/13/36 37/13/30
f 38/13/36 41/14/32 37/13/30
f 39/13/37 43/14/34 40/13/31
f 41/14/32 39/13/37 37/13/30
f 47/15/38 22/15/21 48/15/41
f 47/15/38 27/16/26 26/15/25
f 27/16/26 47/15/38 45/16/40
f 28/26/27 20/27/74 24/27/22
f 20/27/74 28/26/27 17/26/18
f 19/27/19 23/26/23 21/27/20
f 23/26/23 19/27/19 18/26/17
f 19/27/19 24/27/22 20/27/74
f 24/27/22 19/27/19 21/27/20
f 23/26/23 17/26/18 28/26/27
f 17/26/18 23/26/23 18/26/17
f 51/19/48 50/20/50 49/21/49
f 50/20/50 51/19/48 52/18/43
f 50/20/50 52/18/43 53/17/42
f 54/19/44 58/25/55 57/24/57
f 58/25/55 54/19/44 52/18/43
f 50/20/50 59/21/47 49/21/49
f 59/21/47 50/20/50 60/23/52
f 51/19/48 59/21/47 61/24/54
f 64/23/53 56/21/46 63/21/56
f 69/17/63 66/20/72 78/22/65
f 76/23/71 78/22/65 66/20/72
f 65/21/73 67/19/66 75/21/70
f 65/21/73 75/21/70 66/20/72
f 68/18/67 70/19/60 74/25/69
o blaster-e
v 0.029766 0.077781 -0.303264
v -0.030234 0.077781 -0.303264
v 0.029766 0.117781 -0.303264
v -0.030234 0.117781 -0.303264
v -0.045234 0.067781 -0.353264
v -0.045234 0.127781 -0.353264
v 0.044766 0.067781 -0.353264
v 0.044766 0.127781 -0.353264
v 0.044766 0.127781 -0.463264
v -0.045234 0.127781 -0.463264
v -0.045234 0.067781 -0.463264
v 0.044766 0.067781 -0.463264
v -0.030234 0.112781 -0.463264
v -0.030234 0.082781 -0.463264
v 0.029766 0.112781 -0.463264
v 0.029766 0.082781 -0.463264
v -0.055234 0.002781 -0.003264
v -0.055234 0.147781 -0.003264
v 0.054766 0.147781 -0.003264
v 0.054766 0.002781 -0.003264
v 0.044766 0.147781 -0.013264
v -0.045234 0.147781 -0.013264
v 0.044766 0.002781 -0.013264
v -0.045234 0.002781 -0.013264
v -0.030234 0.082781 -0.433264
v 0.029766 0.082781 -0.433264
v -0.030234 0.112781 -0.433264
v 0.029766 0.112781 -0.433264
v -0.000234 0.127781 -0.013264
v -0.021447 0.118994 -0.013264
v 0.020979 0.118994 -0.013264
v 0.029766 0.097781 -0.013264
v -0.030234 0.097781 -0.013264
v 0.020979 0.076568 -0.013264
v -0.021447 0.076568 -0.013264
v -0.000234 0.067781 -0.013264
v -0.000234 0.127781 -0.303264
v 0.020979 0.118994 -0.303264
v -0.021447 0.118994 -0.303264
v -0.030234 0.097781 -0.303264
v 0.029766 0.097781 -0.303264
v -0.021447 0.076568 -0.303264
v 0.020979 0.076568 -0.303264
v -0.000234 0.067781 -0.303264
v -0.000234 0.141251 -0.086748
v -0.030972 0.128519 -0.086748
v 0.030504 0.128519 -0.086748
v 0.043236 0.097781 -0.086748
v -0.043704 0.097781 -0.086748
v 0.030504 0.067043 -0.086748
v -0.030972 0.067043 -0.086748
v -0.000234 0.054311 -0.086748
v -0.000234 0.141251 -0.149779
v 0.030504 0.128519 -0.149779
v -0.030972 0.128519 -0.149779
v -0.043704 0.097781 -0.149779
v 0.043236 0.097781 -0.149779
v -0.030972 0.067043 -0.149779
v 0.030504 0.067043 -0.149779
v -0.000234 0.054311 -0.149779
v 0.020979 0.138048 -0.323264
v 0.020979 0.138048 -0.303264
v -0.021447 0.138048 -0.323264
v -0.021447 0.138048 -0.303264
v -0.021447 0.117781 -0.333264
v -0.021447 0.125548 -0.333264
v -0.021447 0.117781 -0.303264
v 0.020979 0.117781 -0.303264
v 0.020979 0.125548 -0.333264
v 0.020979 0.117781 -0.333264
v 0.020979 0.057515 -0.323264
v 0.020979 0.057515 -0.303264
v -0.021447 0.057515 -0.323264
v -0.021447 0.057515 -0.303264
v -0.021447 0.077781 -0.333264
v -0.021447 0.070015 -0.333264
v -0.021447 0.077781 -0.303264
v 0.020979 0.077781 -0.303264
v 0.020979 0.070015 -0.333264
v 0.020979 0.077781 -0.333264
vn 0.4844 0.5231 0.7012
vn -0.4844 -0.5231 0.7012
vn 0.4844 -0.5231 0.7012
vn -0.4843 0.5231 0.7012
vn -0.8073 0.5616 0.1810
vn -0.6729 -0.6720 0.3092
vn 0.6695 -0.6698 0.3212
vn 0.6727 0.6719 0.3099
vn -0.5773 0.5774 -0.5773
vn 0.5774 0.5774 -0.5773
vn -0.5773 -0.5773 -0.5774
vn 0.5773 -0.5774 -0.5774
vn 0.5803 0.0381 -0.8135
vn -0.7229 -0.2185 -0.6555
vn 0.6622 0.1604 -0.7320
vn 0.0370 0.2850 -0.9578
vn -0.4479 0.7739 -0.4478
vn -0.4205 -0.8039 -0.4205
vn -0.7047 -0.2608 -0.6598
vn -0.6781 -0.6370 -0.3666
vn -0.9176 -0.0000 0.3976
vn -0.6435 -0.6435 0.4144
vn -0.3660 -0.6585 0.6576
vn -0.0000 -0.9571 -0.2897
vn 0.2819 -0.6963 0.6600
vn 0.6435 -0.6435 -0.4144
vn 0.9168 -0.0259 -0.3986
vn 0.6752 0.3307 0.6593
vn 0.9168 0.0259 0.3986
vn 0.6582 0.6582 -0.3655
vn -0.0000 0.9571 -0.2897
vn 0.0364 0.9560 0.2911
vn -0.6435 0.6435 -0.4144
vn -0.6370 0.6781 0.3666
vn -0.6752 -0.3307 0.6593
vn -0.8838 -0.1627 0.4386
vn -0.6588 -0.6588 -0.3633
vn -0.7043 -0.2620 -0.6598
vn -0.3685 -0.6572 0.6575
vn -0.0000 -0.9579 -0.2870
vn 0.2797 -0.6972 0.6600
vn 0.7043 -0.2620 0.6598
vn 0.9180 -0.0000 -0.3965
vn 0.6588 0.6588 -0.3633
vn -0.0000 0.9579 -0.2870
vn 0.2288 0.9098 0.3463
vn -0.5019 0.7611 0.4108
vn -0.4124 0.2418 -0.8783
vn 0.7071 -0.0000 -0.7071
vn -0.7071 -0.0000 -0.7071
vn 0.3541 -0.3096 -0.8825
vn -0.4124 -0.2418 -0.8783
vn 0.5774 -0.5773 0.5773
vn 0.7670 -0.6189 -0.1695
vn 0.7071 -0.0000 0.7071
vn -0.5774 -0.5774 0.5774
vn -0.7071 -0.0000 0.7071
vn -0.6589 -0.7488 0.0715
vn 0.8656 0.2914 -0.4072
vn 0.5734 -0.6589 -0.4869
vn 0.3099 0.7717 -0.5554
vn 0.7926 -0.6091 0.0271
vn 0.7448 -0.5565 -0.3683
vn 0.8039 0.4205 -0.4205
vn -0.3011 0.9317 -0.2032
vn 0.5774 0.5773 0.5773
vn 0.4166 0.8194 -0.3938
vn -0.5774 0.5774 0.5774
vn 0.6596 0.5256 -0.5373
vn -0.5719 0.6590 -0.4886
vn -0.0407 -0.6596 -0.7505
vn -0.7485 -0.6575 0.0865
vn -0.8887 0.2732 -0.3682
vt 0.468750 0.441667
vt 0.468750 0.308333
vt 0.468750 0.475000
vt 0.468750 0.275000
vt 0.468750 0.425000
vt 0.468750 0.325000
vt 0.218750 0.175000
vt 0.218750 0.075000
vt 0.218750 0.125000
vt 0.218750 0.195711
vt 0.218750 0.225000
vt 0.218750 0.054289
vt 0.218750 0.025000
vt 0.343750 0.101644
vt 0.343750 0.025000
vt 0.343750 0.225000
vt 0.343750 0.175000
vt 0.343750 0.075000
s 1
usemtl colormap.001
f 83/28/75 82/29/76 81/29/77
f 82/29/76 83/28/75 84/28/78
f 82/29/76 86/30/79 85/31/80
f 86/30/79 82/29/76 84/28/78
f 81/29/77 85/31/80 87/31/81
f 85/31/80 81/29/77 82/29/76
f 83/28/75 87/31/81 88/30/82
f 87/31/81 83/28/75 81/29/77
f 86/30/79 83/28/75 88/30/82
f 83/28/75 86/30/79 84/28/78
f 90/30/83 88/30/82 89/30/84
f 88/30/82 90/30/83 86/30/79
f 85/31/80 90/30/83 91/31/85
f 90/30/83 85/31/80 86/30/79
f 88/30/82 92/31/86 89/30/84
f 85/31/80 92/31/86 87/31/81
f 92/31/86 85/31/80 91/31/85
f 93/32/87 90/30/83 95/32/88
f 91/31/85 94/33/89 92/31/86
f 92/31/86 96/33/90 89/30/84
f 95/34/88 106/35/91 108/34/92
f 120/36/93 122/37/94 113/36/95
f 115/37/96 122/37/94 116/38/97
f 124/38/98 116/38/97 122/37/94
f 116/38/97 124/38/98 114/37/99
f 123/37/100 114/37/99 124/38/98
f 123/37/100 121/36/101 114/37/99
f 111/39/102 112/36/103 118/39/104
f 117/40/105 109/40/106 118/39/104
f 111/39/102 118/39/104 109/40/106
f 119/39/107 110/39/108 117/40/105
f 109/40/106 117/40/105 110/39/108
f 113/36/95 110/39/108 120/36/93
f 123/37/100 122/37/94 121/36/101
f 122/37/94 120/36/93 121/36/101
f 121/36/101 120/36/93 118/39/104
f 120/36/93 119/39/107 118/39/104
f 116/38/97 114/37/99 115/37/96
f 114/37/99 112/36/103 113/36/95
f 113/36/95 112/36/103 110/39/108
f 112/36/103 111/39/102 110/39/108
f 131/37/109 129/36/110 138/37/111
f 136/36/112 138/37/111 129/36/110
f 131/37/109 138/37/111 132/38/113
f 140/38/114 132/38/113 138/37/111
f 132/38/113 140/38/114 130/37/115
f 139/37/100 130/37/115 140/38/114
f 128/36/116 130/37/115 137/36/117
f 139/37/100 137/36/117 130/37/115
f 127/39/102 128/36/116 134/39/118
f 137/36/117 134/39/118 128/36/116
f 133/40/119 125/40/120 134/39/118
f 127/39/102 134/39/118 125/40/120
f 135/39/107 126/39/121 133/40/119
f 125/40/120 133/40/119 126/39/121
f 129/36/110 126/39/121 136/36/112
f 140/38/114 138/37/111 139/37/100
f 139/37/100 138/37/111 137/36/117
f 137/36/117 136/36/112 134/39/118
f 130/37/115 128/36/116 129/36/110
f 129/36/110 128/36/116 126/39/121
f 125/40/120 126/39/121 127/39/102
f 146/41/122 150/42/123 145/42/124
f 159/41/125 156/41/126 160/42/123
f 155/42/124 160/42/123 156/41/126
f 152/43/127 151/43/128 158/42/129
f 158/42/129 151/43/128 160/42/123
f 154/43/130 152/43/127 157/42/131
f 158/42/129 157/42/131 152/43/127
f 154/43/130 157/42/131 153/43/132
f 153/43/132 157/42/131 156/41/126
f 155/42/124 156/41/126 157/42/131
f 99/44/133 103/45/134 101/44/135
f 103/45/134 99/44/133 100/45/136
f 92/31/86 88/30/82 87/31/81
f 94/33/89 90/30/83 93/32/87
f 94/33/89 91/31/85 90/30/83
f 89/30/84 95/32/88 90/30/83
f 89/30/84 96/33/90 95/32/88
f 96/33/90 92/31/86 94/33/89
f 107/34/137 106/35/91 105/35/138
f 106/35/91 107/34/137 108/34/92
f 94/35/89 106/35/91 96/35/90
f 106/35/91 94/35/89 105/35/138
f 107/34/137 94/35/89 93/34/87
f 94/35/89 107/34/137 105/35/138
f 107/34/137 95/34/88 108/34/92
f 95/34/88 107/34/137 93/34/87
f 106/35/91 95/34/88 96/35/90
f 115/37/96 113/36/95 122/37/94
f 112/36/103 114/37/99 121/36/101
f 121/36/101 118/39/104 112/36/103
f 119/39/107 120/36/93 110/39/108
f 124/38/98 122/37/94 123/37/100
f 117/40/105 118/39/104 119/39/107
f 115/37/96 114/37/99 113/36/95
f 109/40/106 110/39/108 111/39/102
f 135/39/107 136/36/112 126/39/121
f 138/37/111 136/36/112 137/36/117
f 136/36/112 135/39/107 134/39/118
f 133/40/119 134/39/118 135/39/107
f 132/38/113 130/37/115 131/37/109
f 131/37/109 130/37/115 129/36/110
f 128/36/116 127/39/102 126/39/121
f 143/43/139 142/43/140 141/43/141
f 142/43/140 143/43/139 144/43/142
f 147/42/131 146/41/122 145/42/124
f 146/41/122 147/42/131 143/43/139
f 143/43/139 147/42/131 144/43/142
f 142/43/140 147/42/131 148/42/129
f 147/42/131 142/43/140 144/43/142
f 141/43/141 150/42/123 149/41/143
f 150/42/123 141/43/141 148/42/129
f 148/42/129 141/43/141 142/43/140
f 150/42/123 146/41/122 149/41/143
f 143/43/139 149/41/143 146/41/122
f 149/41/143 143/43/139 141/43/141
f 151/43/128 153/43/132 159/41/125
f 156/41/126 159/41/125 153/43/132
f 159/41/125 160/42/123 151/43/128
f 154/43/130 153/43/132 152/43/127
f 151/43/128 152/43/127 153/43/132
f 102/44/144 103/45/134 104/45/145
f 103/45/134 102/44/144 101/44/135
f 97/45/146 102/44/144 104/45/145
f 102/44/144 97/45/146 98/44/147
