# Blender 4.5.7 LTS
# www.blender.org
mtllib basic_shell.mtl
o Cylinder
v -0.000000 -1.472559 -0.673840
v 0.000000 1.912403 0.000000
v 0.131460 -1.472559 -0.660892
v 0.000000 1.912403 0.000000
v 0.257867 -1.472559 -0.622547
v 0.000000 1.912403 0.000000
v 0.374365 -1.472559 -0.560277
v 0.000000 1.912403 0.000000
v 0.476477 -1.472559 -0.476477
v 0.000000 1.912403 0.000000
v 0.560277 -1.472559 -0.374365
v 0.000000 1.912403 0.000000
v 0.622547 -1.472559 -0.257867
v 0.000000 1.912403 0.000000
v 0.660892 -1.472559 -0.131460
v 0.000000 1.912403 0.000000
v 0.673840 -1.472559 -0.000000
v 0.000000 1.912403 0.000000
v 0.660892 -1.472559 0.131460
v 0.000000 1.912403 0.000000
v 0.622547 -1.472559 0.257867
v 0.000000 1.912403 0.000000
v 0.560277 -1.472559 0.374365
v 0.000000 1.912403 0.000000
v 0.476477 -1.472559 0.476477
v 0.000000 1.912403 0.000000
v 0.374365 -1.472559 0.560277
v 0.000000 1.912403 0.000000
v 0.257867 -1.472559 0.622547
v 0.000000 1.912403 0.000000
v 0.131460 -1.472559 0.660892
v 0.000000 1.912403 0.000000
v -0.000000 -1.472559 0.673840
v 0.000000 1.912403 0.000000
v -0.131460 -1.472559 0.660892
v 0.000000 1.912403 0.000000
v -0.257867 -1.472559 0.622547
v 0.000000 1.912403 0.000000
v -0.374365 -1.472559 0.560277
v 0.000000 1.912403 0.000000
v -0.476477 -1.472559 0.476477
v 0.000000 1.912403 0.000000
v -0.560278 -1.472559 0.374365
v 0.000000 1.912403 0.000000
v -0.622547 -1.472559 0.257867
v 0.000000 1.912403 0.000000
v -0.660892 -1.472559 0.131460
v 0.000000 1.912403 0.000000
v -0.673840 -1.472559 -0.000000
v 0.000000 1.912403 0.000000
v -0.660892 -1.472559 -0.131460
v 0.000000 1.912403 0.000000
v -0.622547 -1.472559 -0.257867
v 0.000000 1.912403 0.000000
v -0.560278 -1.472559 -0.374365
v 0.000000 1.912403 0.000000
v -0.476477 -1.472559 -0.476477
v 0.000000 1.912403 0.000000
v -0.374366 -1.472559 -0.560277
v 0.000000 1.912403 0.000000
v -0.257867 -1.472559 -0.622547
v 0.000000 1.912403 0.000000
v -0.131460 -1.472559 -0.660892
v 0.000000 1.912403 0.000000
v -0.000000 -0.805893 -0.622529
v 0.000000 0.253362 -0.506582
v 0.098829 0.253362 -0.496848
v 0.121449 -0.805893 -0.610568
v 0.193861 0.253362 -0.468021
v 0.238232 -0.805893 -0.575142
v 0.281442 0.253362 -0.421207
v 0.345859 -0.805893 -0.517614
v 0.358208 0.253362 -0.358207
v 0.440195 -0.805893 -0.440195
v 0.421208 0.253362 -0.281442
v 0.517614 -0.805893 -0.345859
v 0.468021 0.253362 -0.193860
v 0.575142 -0.805893 -0.238232
v 0.496848 0.253362 -0.098829
v 0.610568 -0.805893 -0.121449
v 0.506582 0.253362 0.000000
v 0.622529 -0.805893 0.000000
v 0.496848 0.253362 0.098829
v 0.610568 -0.805893 0.121449
v 0.468021 0.253362 0.193861
v 0.575142 -0.805893 0.238232
v 0.421208 0.253362 0.281442
v 0.517614 -0.805893 0.345859
v 0.358208 0.253362 0.358208
v 0.440195 -0.805893 0.440195
v 0.281442 0.253362 0.421208
v 0.345859 -0.805893 0.517614
v 0.193861 0.253362 0.468021
v 0.238232 -0.805893 0.575142
v 0.098829 0.253362 0.496848
v 0.121449 -0.805893 0.610568
v 0.000000 0.253362 0.506582
v 0.000000 -0.805893 0.622529
v -0.098829 0.253362 0.496848
v -0.121449 -0.805893 0.610568
v -0.193861 0.253362 0.468021
v -0.238232 -0.805893 0.575142
v -0.281442 0.253362 0.421208
v -0.345859 -0.805893 0.517614
v -0.358207 0.253362 0.358208
v -0.440195 -0.805893 0.440195
v -0.421208 0.253362 0.281442
v -0.517614 -0.805893 0.345859
v -0.468021 0.253362 0.193861
v -0.575142 -0.805893 0.238232
v -0.496848 0.253362 0.098829
v -0.610568 -0.805893 0.121449
v -0.506582 0.253362 0.000000
v -0.622530 -0.805893 0.000000
v -0.496848 0.253362 -0.098829
v -0.610568 -0.805893 -0.121449
v -0.468021 0.253362 -0.193860
v -0.575142 -0.805893 -0.238232
v -0.421208 0.253362 -0.281442
v -0.517614 -0.805893 -0.345859
v -0.358208 0.253362 -0.358207
v -0.440195 -0.805893 -0.440195
v -0.281442 0.253362 -0.421207
v -0.345859 -0.805893 -0.517614
v -0.193861 0.253362 -0.468021
v -0.238232 -0.805893 -0.575142
v -0.098829 0.253362 -0.496848
v -0.121450 -0.805893 -0.610568
v -0.000000 -3.706414 -0.673840
v 0.131459 -3.706414 -0.660892
v 0.257867 -3.706414 -0.622547
v 0.374365 -3.706414 -0.560278
v 0.476477 -3.706414 -0.476477
v 0.560277 -3.706414 -0.374366
v 0.622547 -3.706414 -0.257868
v 0.660892 -3.706414 -0.131460
v 0.673840 -3.706414 -0.000000
v 0.660892 -3.706414 0.131459
v 0.622547 -3.706414 0.257867
v 0.560277 -3.706414 0.374365
v 0.476477 -3.706414 0.476477
v 0.374365 -3.706414 0.560277
v 0.257867 -3.706414 0.622547
v 0.131460 -3.706414 0.660892
v -0.000000 -3.706414 0.673840
v -0.131460 -3.706414 0.660892
v -0.257868 -3.706414 0.622547
v -0.374366 -3.706414 0.560277
v -0.476477 -3.706414 0.476477
v -0.560278 -3.706414 0.374365
v -0.622547 -3.706414 0.257867
v -0.660892 -3.706414 0.131459
v -0.673840 -3.706414 -0.000000
v -0.660892 -3.706414 -0.131460
v -0.622547 -3.706414 -0.257868
v -0.560278 -3.706414 -0.374366
v -0.476477 -3.706414 -0.476477
v -0.374366 -3.706414 -0.560278
v -0.257868 -3.706414 -0.622547
v -0.131460 -3.706414 -0.660892
v 0.476477 -1.673134 -0.476477
v 0.374365 -1.673134 -0.560278
v 0.374365 -1.673134 0.560277
v 0.476477 -1.673134 0.476477
v -0.622547 -1.673134 0.257867
v -0.560278 -1.673134 0.374365
v -0.131460 -1.673134 -0.660892
v -0.257867 -1.673134 -0.622547
v 0.660892 -1.673134 0.131460
v 0.673840 -1.673134 -0.000000
v -0.257867 -1.673134 0.622547
v -0.131460 -1.673134 0.660892
v -0.560278 -1.673134 -0.374366
v -0.622547 -1.673134 -0.257867
v 0.560277 -1.673134 -0.374366
v 0.257867 -1.673134 0.622547
v 0.131460 -1.673134 -0.660892
v -0.000000 -1.673134 -0.673840
v -0.660892 -1.673134 0.131460
v 0.622547 -1.673134 0.257867
v -0.374365 -1.673134 0.560277
v -0.476477 -1.673134 -0.476477
v 0.622547 -1.673134 -0.257867
v 0.131460 -1.673134 0.660892
v -0.673840 -1.673134 -0.000000
v 0.257867 -1.673134 -0.622547
v 0.560277 -1.673134 0.374365
v -0.476477 -1.673134 0.476477
v -0.374366 -1.673134 -0.560278
v 0.660892 -1.673134 -0.131460
v -0.000000 -1.673134 0.673840
v -0.660892 -1.673134 -0.131460
v 1.192918 -3.397832 -0.145473
v 1.198376 -3.397832 -0.090049
v 0.145473 -3.397832 1.192918
v 0.090049 -3.397832 1.198377
v -1.192918 -3.397832 0.145473
v -1.198377 -3.397832 0.090049
v -0.145473 -3.397832 -1.192918
v -0.090049 -3.397832 -1.198377
v -0.145473 -2.799777 -1.192918
v -1.192918 -2.799777 0.145473
v 0.145473 -2.799777 1.192918
v -1.198377 -2.799777 0.090049
v 1.192918 -2.799777 -0.145473
v 0.090049 -2.799777 1.198376
v 1.198377 -2.799777 -0.090049
v -0.090049 -2.799777 -1.198377
v 1.007147 -3.429799 -0.200334
v 1.026878 -3.429799 -0.000000
v 0.200334 -3.429799 1.007147
v -0.000000 -3.429799 1.026878
v -1.007147 -3.429799 0.200334
v -1.026878 -3.429799 -0.000000
v -0.200334 -3.429799 -1.007147
v -0.000000 -3.429799 -1.026878
v -0.200334 -2.264779 -1.007147
v -1.007147 -2.264778 0.200334
v 0.200334 -2.264778 1.007147
v -1.026878 -2.264779 -0.000000
v 1.007147 -2.264778 -0.200334
v -0.000000 -2.264778 1.026878
v 1.026878 -2.264778 -0.000000
v -0.000000 -2.264779 -1.026878
vn 0.0938 0.2907 -0.9522
vn 0.2777 0.2907 -0.9156
vn 0.4510 0.2907 -0.8438
vn 0.6070 0.2907 -0.7396
vn 0.7396 0.2907 -0.6070
vn 0.8438 0.2907 -0.4510
vn 0.9156 0.2907 -0.2777
vn 0.9522 0.2907 -0.0938
vn 0.9522 0.2907 0.0938
vn 0.9156 0.2907 0.2777
vn 0.8438 0.2907 0.4510
vn 0.7396 0.2907 0.6070
vn 0.6070 0.2907 0.7396
vn 0.4510 0.2907 0.8438
vn 0.2777 0.2907 0.9156
vn 0.0938 0.2907 0.9522
vn -0.0938 0.2907 0.9522
vn -0.2777 0.2907 0.9156
vn -0.4510 0.2907 0.8438
vn -0.6070 0.2907 0.7396
vn -0.7396 0.2907 0.6070
vn -0.8438 0.2907 0.4510
vn -0.9156 0.2907 0.2777
vn -0.9522 0.2907 0.0938
vn -0.9522 0.2907 -0.0938
vn -0.9156 0.2907 -0.2777
vn -0.8438 0.2907 -0.4510
vn -0.7396 0.2907 -0.6070
vn -0.6070 0.2907 -0.7396
vn -0.4510 0.2907 -0.8438
vn -0.0000 1.0000 -0.0000
vn -0.2777 0.2907 -0.9156
vn -0.0938 0.2907 -0.9522
vn 0.6344 -0.0000 -0.7730
vn -0.0977 0.0764 -0.9923
vn -0.0974 0.1083 -0.9893
vn -0.2894 0.0764 -0.9541
vn -0.2886 0.1083 -0.9513
vn -0.4700 0.0764 -0.8793
vn -0.4686 0.1083 -0.8767
vn -0.6325 0.0764 -0.7708
vn -0.6307 0.1083 -0.7685
vn -0.7708 0.0764 -0.6325
vn -0.7685 0.1083 -0.6307
vn -0.8793 0.0764 -0.4700
vn -0.8767 0.1083 -0.4686
vn -0.9541 0.0764 -0.2894
vn -0.9513 0.1083 -0.2886
vn -0.9923 0.0764 -0.0977
vn -0.9893 0.1083 -0.0974
vn -0.9923 0.0764 0.0977
vn -0.9893 0.1083 0.0974
vn -0.9541 0.0764 0.2894
vn -0.9513 0.1083 0.2886
vn -0.8793 0.0764 0.4700
vn -0.8767 0.1083 0.4686
vn -0.7708 0.0764 0.6325
vn -0.7685 0.1083 0.6307
vn -0.6325 0.0764 0.7708
vn -0.6307 0.1083 0.7685
vn -0.4700 0.0764 0.8793
vn -0.4686 0.1083 0.8767
vn -0.2894 0.0764 0.9541
vn -0.2886 0.1083 0.9513
vn -0.0977 0.0764 0.9923
vn -0.0974 0.1083 0.9893
vn 0.0977 0.0764 0.9923
vn 0.0974 0.1083 0.9893
vn 0.2894 0.0764 0.9541
vn 0.2886 0.1083 0.9513
vn 0.4700 0.0764 0.8793
vn 0.4686 0.1083 0.8767
vn 0.6325 0.0764 0.7708
vn 0.6307 0.1083 0.7685
vn 0.7708 0.0764 0.6325
vn 0.7685 0.1083 0.6307
vn 0.8793 0.0764 0.4700
vn 0.8767 0.1083 0.4686
vn 0.9541 0.0764 0.2894
vn 0.9513 0.1083 0.2886
vn 0.9923 0.0764 0.0977
vn 0.9893 0.1083 0.0974
vn 0.9923 0.0764 -0.0977
vn 0.9893 0.1083 -0.0974
vn 0.9541 0.0764 -0.2894
vn 0.9513 0.1083 -0.2886
vn 0.8793 0.0764 -0.4700
vn 0.8767 0.1083 -0.4686
vn 0.7708 0.0764 -0.6325
vn 0.7685 0.1083 -0.6307
vn 0.6325 0.0764 -0.7708
vn 0.6307 0.1083 -0.7685
vn 0.4700 0.0764 -0.8793
vn 0.4686 0.1083 -0.8767
vn 0.2894 0.0764 -0.9541
vn 0.2886 0.1083 -0.9513
vn 0.0977 0.0764 -0.9923
vn 0.0974 0.1083 -0.9893
vn -0.0000 -1.0000 -0.0000
vn 0.6344 -0.0000 0.7730
vn -0.8819 -0.0000 0.4714
vn -0.2903 -0.0000 -0.9569
vn 0.9952 -0.0000 0.0980
vn -0.2903 -0.0000 0.9569
vn -0.8819 -0.0000 -0.4714
vn 0.7730 -0.0000 -0.6344
vn 0.4714 -0.0000 0.8819
vn 0.0980 -0.0000 -0.9952
vn -0.9569 -0.0000 0.2903
vn 0.6156 -0.7857 -0.0606
vn 0.9569 -0.0000 0.2903
vn -0.4714 -0.0000 0.8819
vn -0.7730 -0.0000 -0.6344
vn 0.8819 -0.0000 -0.4714
vn 0.2903 -0.0000 0.9569
vn 1.0000 -0.0000 -0.0000
vn 0.2903 -0.0000 -0.9569
vn 0.8819 -0.0000 0.4714
vn -0.6344 -0.0000 0.7730
vn -0.6344 -0.0000 -0.7730
vn 0.9569 -0.0000 -0.2903
vn -0.0000 -0.0000 1.0000
vn -0.9952 -0.0000 -0.0980
vn 0.4714 -0.0000 -0.8819
vn 0.7730 -0.0000 0.6344
vn -0.7730 -0.0000 0.6344
vn -0.4714 -0.0000 -0.8819
vn -0.8557 0.5106 0.0843
vn -0.0980 -0.0000 0.9952
vn -0.9569 -0.0000 -0.2903
vn 0.9952 -0.0000 -0.0980
vn 0.0980 -0.0000 0.9952
vn -0.9952 -0.0000 0.0980
vn -0.0980 -0.0000 -0.9952
vn 0.0606 -0.7857 0.6156
vn 0.0843 0.5106 0.8557
vn -0.6156 -0.7857 0.0606
vn -0.9808 -0.0000 0.1951
vn -0.0606 -0.7857 -0.6156
vn 0.8557 0.5106 -0.0843
vn -0.1951 -0.0000 -0.9808
vn -1.0000 -0.0000 -0.0000
vn 0.9808 -0.0000 -0.1951
vn -0.0000 -0.0000 -1.0000
vn -0.0843 0.5106 -0.8557
vn 0.1951 -0.0000 0.9808
vn 0.1745 -0.9845 -0.0172
vn 0.0172 -0.9845 0.1745
vn -0.1745 -0.9845 0.0172
vn -0.0172 -0.9845 -0.1745
vn -0.9591 -0.0000 -0.2832
vn -0.2832 -0.0000 0.9591
vn 0.9591 -0.0000 0.2832
vn -0.4649 -0.0000 -0.8854
vn 0.2832 -0.0000 -0.9591
vn -0.8854 -0.0000 0.4649
vn 0.4649 -0.0000 0.8854
vn 0.8854 -0.0000 -0.4649
vn 0.9435 0.3181 -0.0929
vn 0.0929 0.3181 0.9435
vn -0.9435 0.3181 0.0929
vn -0.0929 0.3181 -0.9435
vt 1.000000 0.833333
vt 1.000000 1.000000
vt 0.968750 1.000000
vt 0.968750 0.833333
vt 0.937500 1.000000
vt 0.937500 0.833333
vt 0.906250 1.000000
vt 0.906250 0.833333
vt 0.875000 1.000000
vt 0.875000 0.833333
vt 0.843750 1.000000
vt 0.843750 0.833333
vt 0.812500 1.000000
vt 0.812500 0.833333
vt 0.781250 1.000000
vt 0.781250 0.833333
vt 0.750000 1.000000
vt 0.750000 0.833333
vt 0.718750 1.000000
vt 0.718750 0.833333
vt 0.687500 1.000000
vt 0.687500 0.833333
vt 0.656250 1.000000
vt 0.656250 0.833333
vt 0.625000 1.000000
vt 0.625000 0.833333
vt 0.593750 1.000000
vt 0.593750 0.833333
vt 0.562500 1.000000
vt 0.562500 0.833333
vt 0.531250 1.000000
vt 0.531250 0.833333
vt 0.500000 1.000000
vt 0.500000 0.833333
vt 0.468750 1.000000
vt 0.468750 0.833333
vt 0.437500 1.000000
vt 0.437500 0.833333
vt 0.406250 1.000000
vt 0.406250 0.833333
vt 0.375000 1.000000
vt 0.375000 0.833333
vt 0.343750 1.000000
vt 0.343750 0.833333
vt 0.312500 1.000000
vt 0.312500 0.833333
vt 0.281250 1.000000
vt 0.281250 0.833333
vt 0.250000 1.000000
vt 0.250000 0.833333
vt 0.218750 1.000000
vt 0.218750 0.833333
vt 0.187500 1.000000
vt 0.187500 0.833333
vt 0.156250 1.000000
vt 0.156250 0.833333
vt 0.125000 1.000000
vt 0.125000 0.833333
vt 0.093750 1.000000
vt 0.093750 0.833333
vt 0.062500 1.000000
vt 0.062500 0.833333
vt 0.296822 0.485388
vt 0.250000 0.490000
vt 0.203178 0.485388
vt 0.158156 0.471731
vt 0.116663 0.449553
vt 0.080294 0.419706
vt 0.050447 0.383337
vt 0.028269 0.341844
vt 0.014612 0.296822
vt 0.010000 0.250000
vt 0.014612 0.203178
vt 0.028269 0.158156
vt 0.050447 0.116663
vt 0.080294 0.080294
vt 0.116663 0.050447
vt 0.158156 0.028269
vt 0.203178 0.014612
vt 0.250000 0.010000
vt 0.296822 0.014612
vt 0.341844 0.028269
vt 0.383337 0.050447
vt 0.419706 0.080294
vt 0.449553 0.116663
vt 0.471731 0.158156
vt 0.485388 0.203178
vt 0.490000 0.250000
vt 0.485388 0.296822
vt 0.471731 0.341844
vt 0.449553 0.383337
vt 0.419706 0.419706
vt 0.383337 0.449553
vt 0.341844 0.471731
vt 0.031250 1.000000
vt 0.031250 0.833333
vt 0.000000 1.000000
vt 0.000000 0.833333
vt 0.906250 0.500000
vt 0.875000 0.500000
vt 0.906250 0.500000
vt 0.031250 0.500000
vt 0.031250 0.666667
vt 0.000000 0.666667
vt 0.000000 0.500000
vt 0.062500 0.500000
vt 0.062500 0.666667
vt 0.093750 0.500000
vt 0.093750 0.666667
vt 0.125000 0.500000
vt 0.125000 0.666667
vt 0.156250 0.500000
vt 0.156250 0.666667
vt 0.187500 0.500000
vt 0.187500 0.666667
vt 0.218750 0.500000
vt 0.218750 0.666667
vt 0.250000 0.500000
vt 0.250000 0.666667
vt 0.281250 0.500000
vt 0.281250 0.666667
vt 0.312500 0.500000
vt 0.312500 0.666667
vt 0.343750 0.500000
vt 0.343750 0.666667
vt 0.375000 0.500000
vt 0.375000 0.666667
vt 0.406250 0.500000
vt 0.406250 0.666667
vt 0.437500 0.500000
vt 0.437500 0.666667
vt 0.468750 0.500000
vt 0.468750 0.666667
vt 0.500000 0.500000
vt 0.500000 0.666667
vt 0.531250 0.500000
vt 0.531250 0.666667
vt 0.562500 0.500000
vt 0.562500 0.666667
vt 0.593750 0.500000
vt 0.593750 0.666667
vt 0.625000 0.500000
vt 0.625000 0.666667
vt 0.656250 0.500000
vt 0.656250 0.666667
vt 0.687500 0.500000
vt 0.687500 0.666667
vt 0.718750 0.500000
vt 0.718750 0.666667
vt 0.750000 0.500000
vt 0.750000 0.666667
vt 0.781250 0.500000
vt 0.781250 0.666667
vt 0.812500 0.500000
vt 0.812500 0.666667
vt 0.843750 0.500000
vt 0.843750 0.666667
vt 0.875000 0.666667
vt 0.906250 0.666667
vt 0.937500 0.500000
vt 0.937500 0.666667
vt 0.968750 0.500000
vt 0.968750 0.666667
vt 1.000000 0.500000
vt 1.000000 0.666667
vt 0.750000 0.490000
vt 0.796822 0.485388
vt 0.841844 0.471731
vt 0.883337 0.449553
vt 0.919706 0.419706
vt 0.949553 0.383337
vt 0.971731 0.341844
vt 0.985388 0.296822
vt 0.990000 0.250000
vt 0.985388 0.203178
vt 0.971731 0.158156
vt 0.949553 0.116663
vt 0.919706 0.080294
vt 0.883337 0.050447
vt 0.841844 0.028269
vt 0.796822 0.014612
vt 0.750000 0.010000
vt 0.703178 0.014612
vt 0.658156 0.028269
vt 0.616663 0.050447
vt 0.580294 0.080294
vt 0.550447 0.116663
vt 0.528269 0.158156
vt 0.514612 0.203178
vt 0.510000 0.250000
vt 0.514612 0.296822
vt 0.528269 0.341844
vt 0.550447 0.383337
vt 0.580294 0.419706
vt 0.616663 0.449553
vt 0.658156 0.471731
vt 0.703178 0.485388
vt 0.468750 0.500000
vt 0.187500 0.500000
vt 0.812500 0.500000
vt 0.019302 0.500000
vt 0.011948 0.500000
vt 0.011948 0.500000
vt 0.019302 0.500000
vt 0.269302 0.500000
vt 0.261948 0.500000
vt 0.261948 0.500000
vt 0.269302 0.500000
vt 0.519302 0.500000
vt 0.511948 0.500000
vt 0.511948 0.500000
vt 0.519302 0.500000
vt 0.769302 0.500000
vt 0.761948 0.500000
vt 0.769302 0.500000
s 0
f 66/1/1 2/2/1 4/3/1 67/4/1
f 67/4/2 4/3/2 6/5/2 69/6/2
f 69/6/3 6/5/3 8/7/3 71/8/3
f 71/8/4 8/7/4 10/9/4 73/10/4
f 73/10/5 10/9/5 12/11/5 75/12/5
f 75/12/6 12/11/6 14/13/6 77/14/6
f 77/14/7 14/13/7 16/15/7 79/16/7
f 79/16/8 16/15/8 18/17/8 81/18/8
f 81/18/9 18/17/9 20/19/9 83/20/9
f 83/20/10 20/19/10 22/21/10 85/22/10
f 85/22/11 22/21/11 24/23/11 87/24/11
f 87/24/12 24/23/12 26/25/12 89/26/12
f 89/26/13 26/25/13 28/27/13 91/28/13
f 91/28/14 28/27/14 30/29/14 93/30/14
f 93/30/15 30/29/15 32/31/15 95/32/15
f 95/32/16 32/31/16 34/33/16 97/34/16
f 97/34/17 34/33/17 36/35/17 99/36/17
f 99/36/18 36/35/18 38/37/18 101/38/18
f 101/38/19 38/37/19 40/39/19 103/40/19
f 103/40/20 40/39/20 42/41/20 105/42/20
f 105/42/21 42/41/21 44/43/21 107/44/21
f 107/44/22 44/43/22 46/45/22 109/46/22
f 109/46/23 46/45/23 48/47/23 111/48/23
f 111/48/24 48/47/24 50/49/24 113/50/24
f 113/50/25 50/49/25 52/51/25 115/52/25
f 115/52/26 52/51/26 54/53/26 117/54/26
f 117/54/27 54/53/27 56/55/27 119/56/27
f 119/56/28 56/55/28 58/57/28 121/58/28
f 121/58/29 58/57/29 60/59/29 123/60/29
f 123/60/30 60/59/30 62/61/30 125/62/30
f 4/63/31 2/64/31 64/65/31 62/66/31 60/67/31 58/68/31 56/69/31 54/70/31 52/71/31 50/72/31 48/73/31 46/74/31 44/75/31 42/76/31 40/77/31 38/78/31 36/79/31 34/80/31 32/81/31 30/82/31 28/83/31 26/84/31 24/85/31 22/86/31 20/87/31 18/88/31 16/89/31 14/90/31 12/91/31 10/92/31 8/93/31 6/94/31
f 125/62/32 62/61/32 64/95/32 127/96/32
f 127/96/33 64/95/33 2/97/33 66/98/33
f 162/99/34 161/100/34 133/100/34 132/101/34
f 63/102/35 128/103/35 65/104/35 1/105/35
f 128/103/36 127/96/36 66/98/36 65/104/36
f 61/106/37 126/107/37 128/103/37 63/102/37
f 126/107/38 125/62/38 127/96/38 128/103/38
f 59/108/39 124/109/39 126/107/39 61/106/39
f 124/109/40 123/60/40 125/62/40 126/107/40
f 57/110/41 122/111/41 124/109/41 59/108/41
f 122/111/42 121/58/42 123/60/42 124/109/42
f 55/112/43 120/113/43 122/111/43 57/110/43
f 120/113/44 119/56/44 121/58/44 122/111/44
f 53/114/45 118/115/45 120/113/45 55/112/45
f 118/115/46 117/54/46 119/56/46 120/113/46
f 51/116/47 116/117/47 118/115/47 53/114/47
f 116/117/48 115/52/48 117/54/48 118/115/48
f 49/118/49 114/119/49 116/117/49 51/116/49
f 114/119/50 113/50/50 115/52/50 116/117/50
f 47/120/51 112/121/51 114/119/51 49/118/51
f 112/121/52 111/48/52 113/50/52 114/119/52
f 45/122/53 110/123/53 112/121/53 47/120/53
f 110/123/54 109/46/54 111/48/54 112/121/54
f 43/124/55 108/125/55 110/123/55 45/122/55
f 108/125/56 107/44/56 109/46/56 110/123/56
f 41/126/57 106/127/57 108/125/57 43/124/57
f 106/127/58 105/42/58 107/44/58 108/125/58
f 39/128/59 104/129/59 106/127/59 41/126/59
f 104/129/60 103/40/60 105/42/60 106/127/60
f 37/130/61 102/131/61 104/129/61 39/128/61
f 102/131/62 101/38/62 103/40/62 104/129/62
f 35/132/63 100/133/63 102/131/63 37/130/63
f 100/133/64 99/36/64 101/38/64 102/131/64
f 33/134/65 98/135/65 100/133/65 35/132/65
f 98/135/66 97/34/66 99/36/66 100/133/66
f 31/136/67 96/137/67 98/135/67 33/134/67
f 96/137/68 95/32/68 97/34/68 98/135/68
f 29/138/69 94/139/69 96/137/69 31/136/69
f 94/139/70 93/30/70 95/32/70 96/137/70
f 27/140/71 92/141/71 94/139/71 29/138/71
f 92/141/72 91/28/72 93/30/72 94/139/72
f 25/142/73 90/143/73 92/141/73 27/140/73
f 90/143/74 89/26/74 91/28/74 92/141/74
f 23/144/75 88/145/75 90/143/75 25/142/75
f 88/145/76 87/24/76 89/26/76 90/143/76
f 21/146/77 86/147/77 88/145/77 23/144/77
f 86/147/78 85/22/78 87/24/78 88/145/78
f 19/148/79 84/149/79 86/147/79 21/146/79
f 84/149/80 83/20/80 85/22/80 86/147/80
f 17/150/81 82/151/81 84/149/81 19/148/81
f 82/151/82 81/18/82 83/20/82 84/149/82
f 15/152/83 80/153/83 82/151/83 17/150/83
f 80/153/84 79/16/84 81/18/84 82/151/84
f 13/154/85 78/155/85 80/153/85 15/152/85
f 78/155/86 77/14/86 79/16/86 80/153/86
f 11/156/87 76/157/87 78/155/87 13/154/87
f 76/157/88 75/12/88 77/14/88 78/155/88
f 9/100/89 74/158/89 76/157/89 11/156/89
f 74/158/90 73/10/90 75/12/90 76/157/90
f 7/101/91 72/159/91 74/158/91 9/100/91
f 72/159/92 71/8/92 73/10/92 74/158/92
f 5/160/93 70/161/93 72/159/93 7/101/93
f 70/161/94 69/6/94 71/8/94 72/159/94
f 3/162/95 68/163/95 70/161/95 5/160/95
f 68/163/96 67/4/96 69/6/96 70/161/96
f 1/164/97 65/165/97 68/163/97 3/162/97
f 65/165/98 66/1/98 67/4/98 68/163/98
f 129/166/99 130/167/99 131/168/99 132/169/99 133/170/99 134/171/99 135/172/99 136/173/99 137/174/99 138/175/99 139/176/99 140/177/99 141/178/99 142/179/99 143/180/99 144/181/99 145/182/99 146/183/99 147/184/99 148/185/99 149/186/99 150/187/99 151/188/99 152/189/99 153/190/99 154/191/99 155/192/99 156/193/99 157/194/99 158/195/99 159/196/99 160/197/99
f 164/142/100 163/140/100 142/140/100 141/142/100
f 166/124/101 165/122/101 151/122/101 150/124/101
f 168/106/102 167/102/102 160/102/102 159/106/102
f 170/150/103 169/148/103 138/148/103 137/150/103
f 172/198/104 171/130/104 147/130/104 146/132/104
f 174/199/105 173/112/105 156/112/105 155/114/105
f 161/100/106 175/156/106 134/156/106 133/100/106
f 163/140/107 176/138/107 143/138/107 142/140/107
f 178/164/108 177/162/108 130/162/108 129/164/108
f 165/122/109 179/120/109 152/120/109 151/122/109
f 137/174/110 136/173/110 209/173/110 210/174/110
f 169/148/111 180/146/111 139/146/111 138/148/111
f 171/130/112 181/128/112 148/128/112 147/130/112
f 173/112/113 182/110/113 157/110/113 156/112/113
f 175/156/114 183/200/114 135/154/114 134/156/114
f 176/138/115 184/136/115 144/136/115 143/138/115
f 178/164/116 129/164/116 216/164/116 224/164/116
f 177/162/117 186/160/117 131/160/117 130/162/117
f 180/146/118 187/144/118 140/144/118 139/146/118
f 181/128/119 188/126/119 149/126/119 148/128/119
f 182/110/120 189/108/120 158/108/120 157/110/120
f 183/200/121 190/152/121 136/152/121 135/154/121
f 170/150/122 137/150/122 210/150/122 223/150/122
f 185/118/123 192/116/123 154/116/123 153/118/123
f 186/160/124 162/99/124 132/101/124 131/160/124
f 187/144/125 164/142/125 141/142/125 140/144/125
f 188/126/126 166/124/126 150/124/126 149/126/126
f 189/108/127 168/106/127 159/106/127 158/108/127
f 179/120/128 185/118/128 220/118/128 218/120/128
f 191/134/129 172/198/129 146/132/129 145/134/129
f 192/116/130 174/199/130 155/114/130 154/116/130
f 51/116/130 53/114/130 174/199/130 192/116/130
f 33/134/129 35/132/129 172/198/129 191/134/129
f 15/152/131 17/150/131 170/150/131 190/152/131
f 59/108/127 61/106/127 168/106/127 189/108/127
f 41/126/126 43/124/126 166/124/126 188/126/126
f 23/144/125 25/142/125 164/142/125 187/144/125
f 5/160/124 7/101/124 162/99/124 186/160/124
f 49/118/123 51/116/123 192/116/123 185/118/123
f 31/136/132 33/134/132 191/134/132 184/136/132
f 13/154/121 15/152/121 190/152/121 183/200/121
f 57/110/120 59/108/120 189/108/120 182/110/120
f 39/128/119 41/126/119 188/126/119 181/128/119
f 21/146/118 23/144/118 187/144/118 180/146/118
f 3/162/117 5/160/117 186/160/117 177/162/117
f 47/120/133 49/118/133 185/118/133 179/120/133
f 29/138/115 31/136/115 184/136/115 176/138/115
f 11/156/114 13/154/114 183/200/114 175/156/114
f 55/112/113 57/110/113 182/110/113 173/112/113
f 37/130/112 39/128/112 181/128/112 171/130/112
f 19/148/111 21/146/111 180/146/111 169/148/111
f 63/102/134 1/105/134 178/105/134 167/102/134
f 45/122/109 47/120/109 179/120/109 165/122/109
f 1/164/108 3/162/108 177/162/108 178/164/108
f 27/140/107 29/138/107 176/138/107 163/140/107
f 9/100/106 11/156/106 175/156/106 161/100/106
f 53/114/105 55/112/105 173/112/105 174/199/105
f 35/132/104 37/130/104 171/130/104 172/198/104
f 17/150/103 19/148/103 169/148/103 170/150/103
f 61/106/102 63/102/102 167/102/102 168/106/102
f 43/124/101 45/122/101 165/122/101 166/124/101
f 25/142/100 27/140/100 163/140/100 164/142/100
f 7/101/34 9/100/34 161/100/34 162/99/34
f 201/201/134 208/202/134 200/203/134 199/204/134
f 202/205/133 204/206/133 198/207/133 197/208/133
f 203/209/132 206/210/132 196/211/132 195/212/132
f 205/213/131 207/214/131 194/214/131 193/215/131
f 145/182/135 144/181/135 211/181/135 212/182/135
f 184/136/136 191/134/136 222/134/136 219/136/136
f 153/190/137 152/189/137 213/189/137 214/190/137
f 160/102/138 167/102/138 217/102/138 215/102/138
f 129/166/139 160/197/139 215/197/139 216/166/139
f 190/152/140 170/150/140 223/150/140 221/152/140
f 136/152/141 190/152/141 221/152/141 209/152/141
f 191/134/142 145/134/142 212/134/142 222/134/142
f 144/136/143 184/136/143 219/136/143 211/136/143
f 185/118/144 153/118/144 214/118/144 220/118/144
f 167/102/145 178/105/145 224/105/145 217/102/145
f 152/120/146 179/120/146 218/120/146 213/120/146
f 193/215/147 194/214/147 210/150/147 209/152/147
f 195/212/148 196/211/148 212/134/148 211/136/148
f 197/208/149 198/207/149 214/118/149 213/120/149
f 199/204/150 200/203/150 216/105/150 215/102/150
f 201/201/151 199/204/151 215/102/151 217/102/151
f 202/205/152 197/208/152 213/120/152 218/120/152
f 203/209/153 195/212/153 211/136/153 219/136/153
f 198/207/154 204/206/154 220/118/154 214/118/154
f 205/213/155 193/215/155 209/152/155 221/152/155
f 196/211/156 206/210/156 222/134/156 212/134/156
f 194/214/157 207/214/157 223/150/157 210/150/157
f 200/203/158 208/202/158 224/105/158 216/105/158
f 207/214/159 205/213/159 221/152/159 223/150/159
f 206/210/160 203/209/160 219/136/160 222/134/160
f 204/206/161 202/205/161 218/120/161 220/118/161
f 208/202/162 201/201/162 217/102/162 224/105/162
