# Blender 4.5.7 LTS
# www.blender.org
mtllib cat.mtl
o Cube
v -2.141591 0.000000 2.141591
v -2.141591 2.000000 2.141591
v -2.141591 0.000000 -2.141591
v -2.141591 2.000000 -2.141591
v 2.141591 0.000000 2.141591
v 2.141591 2.000000 2.141591
v 2.141591 0.000000 -2.141591
v 2.141591 2.000000 -2.141591
v -3.591321 2.000000 3.591321
v -3.591321 2.000000 -3.591321
v 3.591321 2.287120 -3.304201
v 3.591321 2.000000 3.591321
v -2.719486 6.078451 2.719486
v -2.283940 6.078451 -2.283940
v 3.591321 5.791331 -3.304201
v 2.719486 6.078451 2.719486
v -2.141591 0.000000 0.000000
v -2.141591 2.000000 0.000000
v 2.141591 0.000000 0.000000
v 2.141591 2.000000 0.000000
v -3.591321 2.000000 0.000000
v 3.591321 2.287120 -0.287120
v -2.719486 6.078451 0.871836
v 3.591321 5.791331 -0.287120
v 2.283940 6.078451 -2.283940
v 3.591321 2.000000 -3.591321
v 3.591321 2.000000 0.000000
v 2.719486 6.078451 0.871836
v 4.155993 5.306024 -2.818893
v 4.155993 2.772428 -2.818893
v 4.155993 2.772428 -0.772428
v 4.155993 5.306024 -0.772428
v 4.155993 5.791331 -3.304201
v 4.155993 2.287120 -3.304201
v 4.155993 2.287120 -0.287120
v 4.155993 5.791331 -0.287120
v 3.828894 5.306024 -2.818893
v 3.828894 2.772428 -2.818893
v 3.828894 2.772428 -0.772428
v 3.828894 5.306024 -0.772428
v 4.155993 4.725784 -2.818893
v 4.155993 2.772428 -1.795661
v 4.155993 5.306024 -1.795661
v 4.155993 4.725784 -0.772428
v 4.155993 4.156568 -2.818893
v 4.155993 5.306024 -1.284044
v 4.155993 4.881938 -0.772428
v 4.155993 4.881938 -2.818893
v 4.155993 5.306024 -2.307277
v 4.155993 4.156568 -0.772428
v 4.155993 4.881938 -1.795661
v 4.155993 4.881938 -2.307277
v 4.155993 4.881938 -1.284044
v 4.155993 4.769616 -2.818893
v 4.155993 4.769616 -0.772428
v 4.155993 4.769616 -1.795661
v 4.155993 4.769616 -1.284044
v 4.155993 4.345530 -0.772428
v 4.155993 4.345530 -2.818893
v 4.155993 4.769616 -2.307277
v 4.155993 4.345530 -1.795661
v 4.155993 4.345530 -2.307277
v 4.155993 4.345530 -1.284044
v 4.155993 4.253005 -2.818893
v 4.155993 4.253005 -0.772428
v 4.155993 4.253005 -1.795661
v 4.155993 4.253005 -1.284044
v 4.155993 3.828918 -0.772428
v 4.155993 3.828918 -2.818893
v 4.155993 4.253005 -2.307277
v 4.155993 3.828918 -1.795661
v 4.155993 3.828918 -2.307277
v 4.155993 3.828918 -1.284044
v 4.155993 3.734317 -2.818893
v 4.155993 3.734317 -0.772428
v 4.155993 3.734317 -1.795661
v 4.155993 3.734317 -1.284044
v 4.155993 3.310231 -0.772428
v 4.155993 3.310231 -2.818893
v 4.155993 3.734317 -2.307277
v 4.155993 3.310231 -1.795661
v 4.155993 3.310231 -2.307277
v 4.155993 3.310231 -1.284044
v 4.155993 3.196514 -2.818893
v 4.155993 3.196514 -0.772428
v 4.155993 3.196514 -1.795661
v 4.155993 3.196514 -1.284044
v 4.155993 3.196514 -2.307277
v 4.155993 2.772428 -2.307277
v 4.155993 2.772428 -1.284044
v 2.283940 6.078451 -1.307381
v 3.591321 6.078451 3.591321
v -3.591321 6.078451 3.591321
v -2.283940 6.078451 -1.307381
v 2.719486 6.991012 1.795661
v -2.719486 6.991012 1.795661
v -3.591321 6.078451 0.000000
v -3.591321 6.078451 -3.591321
v 3.591321 6.078451 -3.591321
v 3.591321 6.078451 0.000000
v -2.283940 7.776727 -1.795661
v -2.283940 7.776727 -1.795661
v 2.283940 7.776727 -1.795661
v 2.283940 7.776727 -1.795661
v 3.591321 2.000000 3.591321
v 3.591321 2.000000 0.000000
v 3.591321 2.000000 3.591321
v 3.591321 2.000000 1.795661
v 3.591321 2.000000 1.795661
v 3.591321 3.000000 1.795661
v 4.685919 2.000000 4.959370
v 4.685919 3.000000 4.959370
v 3.591321 2.200000 1.795661
v 3.591321 2.400000 1.795661
v 3.591321 2.600000 1.795661
v 3.591321 2.800000 1.795661
v 4.685919 2.800000 4.959370
v 4.685919 2.600000 4.959370
v 4.685919 2.400000 4.959370
v 4.685919 2.200000 4.959370
v 4.590078 2.000000 4.992530
v 3.495480 2.000000 1.828820
v 3.495480 2.800000 1.828820
v 3.495480 3.000000 1.828820
v 4.590078 3.000000 4.992530
v 4.590078 2.200000 4.992530
v 3.495480 2.200000 1.828820
v 3.495480 2.400000 1.828820
v 3.495480 2.600000 1.828820
v 4.590078 2.800000 4.992530
v 4.590078 2.600000 4.992530
v 4.590078 2.400000 4.992530
vn -1.0000 -0.0000 -0.0000
vn -0.0000 -0.0000 -1.0000
vn 1.0000 -0.0000 -0.0000
vn -0.0000 -0.0000 1.0000
vn -0.0000 -1.0000 -0.0000
vn -0.0000 0.2763 0.9611
vn -0.0000 1.0000 -0.0000
vn -0.0000 0.7114 -0.7028
vn -0.0000 0.7114 0.7028
vn -0.0000 0.2763 -0.9611
vn 0.9450 -0.0000 -0.3270
vn 0.3270 -0.0000 0.9450
vn -0.3270 -0.0000 -0.9450
vt 0.375000 0.125000
vt 0.625000 0.125000
vt 0.625000 0.250000
vt 0.375000 0.250000
vt 0.625000 0.500000
vt 0.375000 0.500000
vt 0.375000 0.625000
vt 0.625000 0.625000
vt 0.625000 0.750000
vt 0.375000 0.750000
vt 0.625000 1.000000
vt 0.375000 1.000000
vt 0.125000 0.625000
vt 0.125000 0.750000
vt 0.625000 0.000000
vt 0.625000 0.615007
vt 0.625000 0.615006
vt 0.655345 0.719655
vt 0.655345 0.655345
vt 0.829495 0.579495
vt 0.670505 0.579495
vt 0.125000 0.500000
vt 0.375000 0.000000
vt 0.625000 0.509994
vt 0.625000 0.509994
vt 0.625000 0.598115
vt 0.625000 0.598115
vt 0.625000 0.526885
vt 0.625000 0.526885
vt 0.625000 0.544693
vt 0.625000 0.562500
vt 0.625000 0.580307
vt 0.000000 0.000000
vt 0.844655 0.719655
vt 0.875000 0.750000
vt 0.844655 0.655345
vt 0.875000 0.625000
vt 0.829495 0.545505
vt 0.875000 0.500000
vt 0.670505 0.545505
vt 0.625000 0.687500
vt 0.800000 0.000000
vt 1.000000 0.000000
vt 1.000000 1.000000
vt 0.800000 1.000000
vt 0.200000 0.000000
vt 0.200000 1.000000
vt 0.000000 1.000000
vt 0.400000 0.000000
vt 0.600000 0.000000
vt 0.600000 1.000000
vt 0.400000 1.000000
s 0
f 17/1/1 18/2/1 4/3/1 3/4/1
f 3/4/2 4/3/2 8/5/2 7/6/2
f 19/7/3 20/8/3 6/9/3 5/10/3
f 5/10/4 6/9/4 2/11/4 1/12/4
f 17/13/5 19/7/5 5/10/5 1/14/5
f 2/11/5 6/9/5 12/9/5 9/11/5
f 18/2/5 2/15/5 9/15/5 21/2/5
f 21/2/1 9/15/1 93/15/1 97/2/1
f 9/11/4 12/9/4 92/9/4 93/11/4
f 26/5/2 10/3/2 98/3/2 99/5/2
f 24/16/4 22/17/4 35/17/4 36/16/4
f 8/5/5 4/3/5 10/3/5 26/5/5
f 20/8/5 8/5/5 26/5/5 27/8/5
f 16/18/3 28/19/3 95/18/3
f 94/20/6 91/21/6 104/21/6 101/20/6
f 6/9/5 20/8/5 27/8/5 12/9/5
f 12/9/3 27/8/3 100/8/3 92/9/3
f 10/3/1 21/2/1 97/2/1 98/3/1
f 4/3/5 18/2/5 21/2/5 10/3/5
f 3/22/5 7/6/5 19/7/5 17/13/5
f 7/6/3 8/5/3 20/8/3 19/7/3
f 1/23/1 2/15/1 18/2/1 17/1/1
f 15/24/3 11/25/3 26/5/3 99/5/3
f 11/25/3 22/17/3 27/8/3 26/5/3
f 24/16/3 15/24/3 99/5/3 100/8/3
f 22/17/3 24/16/3 100/8/3 27/8/3
f 32/26/2 47/27/2 44/27/2 50/27/2 31/27/2 39/27/2 40/26/2
f 22/17/5 11/25/5 34/25/5 35/17/5
f 15/24/7 24/16/7 36/16/7 33/24/7
f 11/25/2 15/24/2 33/24/2 34/25/2
f 29/28/3 48/29/3 41/29/3 45/29/3 30/29/3 34/25/3 33/24/3
f 30/29/3 89/30/3 42/31/3 90/32/3 31/27/3 35/17/3 34/25/3
f 32/26/3 46/32/3 43/31/3 49/30/3 29/28/3 33/24/3 36/16/3
f 31/27/3 50/27/3 44/27/3 47/27/3 32/26/3 36/16/3 35/17/3
f 39/27/3 38/29/3 37/28/3 40/26/3
f 31/27/7 90/32/7 42/31/7 89/30/7 30/29/7 38/29/7 39/27/7
f 29/28/5 49/30/5 43/31/5 46/32/5 32/26/5 40/26/5 37/28/5
f 30/29/4 45/29/4 41/29/4 48/29/4 29/28/4 37/28/4 38/29/4
f 43/33/3 46/33/3 32/33/3 47/33/3 53/33/3 51/33/3 52/33/3 48/33/3 29/33/3 49/33/3
f 56/33/3 57/33/3 55/33/3 58/33/3 63/33/3 61/33/3 62/33/3 59/33/3 54/33/3 60/33/3
f 66/33/3 67/33/3 65/33/3 68/33/3 73/33/3 71/33/3 72/33/3 69/33/3 64/33/3 70/33/3
f 76/33/3 77/33/3 75/33/3 78/33/3 83/33/3 81/33/3 82/33/3 79/33/3 74/33/3 80/33/3
f 86/33/3 87/33/3 85/33/3 31/33/3 90/33/3 42/33/3 89/33/3 30/33/3 84/33/3 88/33/3
f 28/19/7 16/18/7 92/9/7 100/8/7
f 16/18/7 13/34/7 93/35/7 92/9/7
f 13/34/7 23/36/7 97/37/7 93/35/7
f 23/36/7 28/19/7 100/8/7 97/37/7
f 28/19/8 23/36/8 96/36/8 95/19/8
f 13/34/9 16/18/9 95/18/9 96/34/9
f 23/36/1 13/34/1 96/36/1
f 94/20/7 14/38/7 98/39/7 97/37/7
f 14/38/7 25/40/7 99/5/7 98/39/7
f 25/40/7 91/21/7 100/8/7 99/5/7
f 91/21/7 94/20/7 97/37/7 100/8/7
f 103/40/7 102/38/7 101/20/7 104/21/7
f 25/40/10 14/38/10 102/38/10 103/40/10
f 91/21/3 25/40/3 103/40/3 104/21/3
f 14/38/1 94/20/1 101/20/1 102/38/1
f 27/8/7 12/9/7 105/9/7 108/41/7 106/8/7
f 116/42/11 110/43/11 112/44/11 117/45/11
f 109/33/11 113/46/11 120/47/11 111/48/11
f 122/33/11 127/46/11 126/47/11 121/48/11
f 114/49/11 115/50/11 118/51/11 119/52/11
f 123/42/11 124/43/11 125/44/11 130/45/11
f 128/49/11 129/50/11 131/51/11 132/52/11
f 111/48/7 109/33/7 122/33/7 121/48/7
f 115/50/7 129/50/7 131/51/7 118/51/7
f 109/33/12 113/46/12 127/46/12 122/33/12
f 116/42/12 110/43/12 124/43/12 123/42/12
f 112/44/13 117/45/13 130/45/13 125/44/13
f 117/45/7 116/42/7 123/42/7 130/45/7
f 113/46/7 127/46/7 126/47/7 120/47/7
f 110/43/7 124/43/7 125/44/7 112/44/7
f 114/49/12 115/50/12 129/50/12 128/49/12
f 119/52/7 114/49/7 128/49/7 132/52/7
f 120/47/13 111/48/13 121/48/13 126/47/13
f 118/51/13 119/52/13 132/52/13 131/51/13
l 105 107
