{
	"asset":{
		"generator":"Khronos glTF Blender I/O v4.5.51",
		"version":"2.0"
	},
	"scene":0,
	"scenes":[
		{
			"name":"Scene",
			"nodes":[
				0,
				1,
				2,
				3,
				4,
				5,
				6
			]
		}
	],
	"nodes":[
		{
			"mesh":0,
			"name":"Plane",
			"rotation":[
				0,
				0,
				-0.7071068286895752,
				0.7071068286895752
			]
		},
		{
			"mesh":1,
			"name":"Cube"
		},
		{
			"mesh":2,
			"name":"Cube.001"
		},
		{
			"mesh":3,
			"name":"Cube.002"
		},
		{
			"mesh":4,
			"name":"Cube.003"
		},
		{
			"mesh":5,
			"name":"Cube.004"
		},
		{
			"mesh":6,
			"name":"Cube.005"
		}
	],
	"animations":[
		{
			"channels":[
				{
					"sampler":0,
					"target":{
						"node":0,
						"path":"translation"
					}
				},
				{
					"sampler":1,
					"target":{
						"node":0,
						"path":"rotation"
					}
				},
				{
					"sampler":2,
					"target":{
						"node":0,
						"path":"scale"
					}
				}
			],
			"name":"PlaneAction",
			"samplers":[
				{
					"input":26,
					"interpolation":"LINEAR",
					"output":27
				},
				{
					"input":26,
					"interpolation":"LINEAR",
					"output":28
				},
				{
					"input":26,
					"interpolation":"LINEAR",
					"output":29
				}
			]
		}
	],
	"meshes":[
		{
			"name":"Plane",
			"primitives":[
				{
					"attributes":{
						"POSITION":0,
						"NORMAL":1,
						"TEXCOORD_0":2
					},
					"indices":3
				}
			]
		},
		{
			"name":"Cube.001",
			"primitives":[
				{
					"attributes":{
						"POSITION":4,
						"NORMAL":5,
						"TEXCOORD_0":6
					},
					"indices":7
				}
			]
		},
		{
			"name":"Cube.002",
			"primitives":[
				{
					"attributes":{
						"POSITION":8,
						"NORMAL":9,
						"TEXCOORD_0":10
					},
					"indices":11
				}
			]
		},
		{
			"name":"Cube.003",
			"primitives":[
				{
					"attributes":{
						"POSITION":12,
						"NORMAL":13,
						"TEXCOORD_0":14
					},
					"indices":15
				}
			]
		},
		{
			"name":"Cube.004",
			"primitives":[
				{
					"attributes":{
						"POSITION":16,
						"NORMAL":17,
						"TEXCOORD_0":18
					},
					"indices":15
				}
			]
		},
		{
			"name":"Cube.005",
			"primitives":[
				{
					"attributes":{
						"POSITION":19,
						"NORMAL":20,
						"TEXCOORD_0":21
					},
					"indices":15
				}
			]
		},
		{
			"name":"Cube.006",
			"primitives":[
				{
					"attributes":{
						"POSITION":22,
						"NORMAL":23,
						"TEXCOORD_0":24
					},
					"indices":25
				}
			]
		}
	],
	"accessors":[
		{
			"bufferView":0,
			"componentType":5126,
			"count":220,
			"max":[
				1,
				0.10567764192819595,
				1
			],
			"min":[
				-1.9441092014312744,
				-0.7779043912887573,
				-1
			],
			"type":"VEC3"
		},
		{
			"bufferView":1,
			"componentType":5126,
			"count":220,
			"type":"VEC3"
		},
		{
			"bufferView":2,
			"componentType":5126,
			"count":220,
			"type":"VEC2"
		},
		{
			"bufferView":3,
			"componentType":5123,
			"count":492,
			"type":"SCALAR"
		},
		{
			"bufferView":4,
			"componentType":5126,
			"count":44,
			"max":[
				0.16044366359710693,
				0.47518813610076904,
				4.072906970977783
			],
			"min":[
				-0.16044366359710693,
				-0.47518813610076904,
				-4.072906970977783
			],
			"type":"VEC3"
		},
		{
			"bufferView":5,
			"componentType":5126,
			"count":44,
			"type":"VEC3"
		},
		{
			"bufferView":6,
			"componentType":5126,
			"count":44,
			"type":"VEC2"
		},
		{
			"bufferView":7,
			"componentType":5123,
			"count":102,
			"type":"SCALAR"
		},
		{
			"bufferView":8,
			"componentType":5126,
			"count":4,
			"max":[
				0.16044366359710693,
				0.47518813610076904,
				4.072906970977783
			],
			"min":[
				0.16044366359710693,
				-0.47518813610076904,
				2.443743944168091
			],
			"type":"VEC3"
		},
		{
			"bufferView":9,
			"componentType":5126,
			"count":4,
			"type":"VEC3"
		},
		{
			"bufferView":10,
			"componentType":5126,
			"count":4,
			"type":"VEC2"
		},
		{
			"bufferView":11,
			"componentType":5123,
			"count":6,
			"type":"SCALAR"
		},
		{
			"bufferView":12,
			"componentType":5126,
			"count":4,
			"max":[
				0.16044366359710693,
				0.47518813610076904,
				2.443743944168091
			],
			"min":[
				0.16044366359710693,
				-0.47518813610076904,
				0.8145812153816223
			],
			"type":"VEC3"
		},
		{
			"bufferView":13,
			"componentType":5126,
			"count":4,
			"type":"VEC3"
		},
		{
			"bufferView":14,
			"componentType":5126,
			"count":4,
			"type":"VEC2"
		},
		{
			"bufferView":15,
			"componentType":5123,
			"count":6,
			"type":"SCALAR"
		},
		{
			"bufferView":16,
			"componentType":5126,
			"count":4,
			"max":[
				0.16044366359710693,
				0.47518813610076904,
				0.8145813941955566
			],
			"min":[
				0.16044366359710693,
				-0.47518813610076904,
				-0.8145815134048462
			],
			"type":"VEC3"
		},
		{
			"bufferView":17,
			"componentType":5126,
			"count":4,
			"type":"VEC3"
		},
		{
			"bufferView":18,
			"componentType":5126,
			"count":4,
			"type":"VEC2"
		},
		{
			"bufferView":19,
			"componentType":5126,
			"count":4,
			"max":[
				0.16044366359710693,
				0.47518813610076904,
				-0.8145813345909119
			],
			"min":[
				0.16044366359710693,
				-0.47518813610076904,
				-2.443743944168091
			],
			"type":"VEC3"
		},
		{
			"bufferView":20,
			"componentType":5126,
			"count":4,
			"type":"VEC3"
		},
		{
			"bufferView":21,
			"componentType":5126,
			"count":4,
			"type":"VEC2"
		},
		{
			"bufferView":22,
			"componentType":5126,
			"count":4,
			"max":[
				0.16044366359710693,
				0.47518813610076904,
				-2.443743944168091
			],
			"min":[
				0.16044366359710693,
				-0.47518813610076904,
				-4.072906970977783
			],
			"type":"VEC3"
		},
		{
			"bufferView":23,
			"componentType":5126,
			"count":4,
			"type":"VEC3"
		},
		{
			"bufferView":24,
			"componentType":5126,
			"count":4,
			"type":"VEC2"
		},
		{
			"bufferView":25,
			"componentType":5123,
			"count":6,
			"type":"SCALAR"
		},
		{
			"bufferView":26,
			"componentType":5126,
			"count":1,
			"max":[
				0.041666666666666664
			],
			"min":[
				0.041666666666666664
			],
			"type":"SCALAR"
		},
		{
			"bufferView":27,
			"componentType":5126,
			"count":1,
			"type":"VEC3"
		},
		{
			"bufferView":28,
			"componentType":5126,
			"count":1,
			"type":"VEC4"
		},
		{
			"bufferView":29,
			"componentType":5126,
			"count":1,
			"type":"VEC3"
		}
	],
	"bufferViews":[
		{
			"buffer":0,
			"byteLength":2640,
			"byteOffset":0,
			"target":34962
		},
		{
			"buffer":0,
			"byteLength":2640,
			"byteOffset":2640,
			"target":34962
		},
		{
			"buffer":0,
			"byteLength":1760,
			"byteOffset":5280,
			"target":34962
		},
		{
			"buffer":0,
			"byteLength":984,
			"byteOffset":7040,
			"target":34963
		},
		{
			"buffer":0,
			"byteLength":528,
			"byteOffset":8024,
			"target":34962
		},
		{
			"buffer":0,
			"byteLength":528,
			"byteOffset":8552,
			"target":34962
		},
		{
			"buffer":0,
			"byteLength":352,
			"byteOffset":9080,
			"target":34962
		},
		{
			"buffer":0,
			"byteLength":204,
			"byteOffset":9432,
			"target":34963
		},
		{
			"buffer":0,
			"byteLength":48,
			"byteOffset":9636,
			"target":34962
		},
		{
			"buffer":0,
			"byteLength":48,
			"byteOffset":9684,
			"target":34962
		},
		{
			"buffer":0,
			"byteLength":32,
			"byteOffset":9732,
			"target":34962
		},
		{
			"buffer":0,
			"byteLength":12,
			"byteOffset":9764,
			"target":34963
		},
		{
			"buffer":0,
			"byteLength":48,
			"byteOffset":9776,
			"target":34962
		},
		{
			"buffer":0,
			"byteLength":48,
			"byteOffset":9824,
			"target":34962
		},
		{
			"buffer":0,
			"byteLength":32,
			"byteOffset":9872,
			"target":34962
		},
		{
			"buffer":0,
			"byteLength":12,
			"byteOffset":9904,
			"target":34963
		},
		{
			"buffer":0,
			"byteLength":48,
			"byteOffset":9916,
			"target":34962
		},
		{
			"buffer":0,
			"byteLength":48,
			"byteOffset":9964,
			"target":34962
		},
		{
			"buffer":0,
			"byteLength":32,
			"byteOffset":10012,
			"target":34962
		},
		{
			"buffer":0,
			"byteLength":48,
			"byteOffset":10044,
			"target":34962
		},
		{
			"buffer":0,
			"byteLength":48,
			"byteOffset":10092,
			"target":34962
		},
		{
			"buffer":0,
			"byteLength":32,
			"byteOffset":10140,
			"target":34962
		},
		{
			"buffer":0,
			"byteLength":48,
			"byteOffset":10172,
			"target":34962
		},
		{
			"buffer":0,
			"byteLength":48,
			"byteOffset":10220,
			"target":34962
		},
		{
			"buffer":0,
			"byteLength":32,
			"byteOffset":10268,
			"target":34962
		},
		{
			"buffer":0,
			"byteLength":12,
			"byteOffset":10300,
			"target":34963
		},
		{
			"buffer":0,
			"byteLength":4,
			"byteOffset":10312
		},
		{
			"buffer":0,
			"byteLength":12,
			"byteOffset":10316
		},
		{
			"buffer":0,
			"byteLength":16,
			"byteOffset":10328
		},
		{
			"buffer":0,
			"byteLength":12,
			"byteOffset":10344
		}
	],
	"buffers":[
		{
			"byteLength":10356,
			"uri":"fuel_pump.bin"
		}
	]
}
