{
	"asset":{
		"generator":"Khronos glTF Blender I/O v4.5.51",
		"version":"2.0"
	},
	"scene":0,
	"scenes":[
		{
			"name":"Scene",
			"nodes":[
				0,
				1
			]
		}
	],
	"nodes":[
		{
			"mesh":0,
			"name":"Cylinder",
			"rotation":[
				0.7071068286895752,
				0,
				0,
				0.7071068286895752
			]
		},
		{
			"mesh":1,
			"name":"Cylinder.001",
			"rotation":[
				0.7071068286895752,
				0,
				0,
				0.7071068286895752
			]
		}
	],
	"meshes":[
		{
			"name":"Cylinder",
			"primitives":[
				{
					"attributes":{
						"POSITION":0,
						"NORMAL":1,
						"TEXCOORD_0":2
					},
					"indices":3
				}
			]
		},
		{
			"name":"Cylinder.001",
			"primitives":[
				{
					"attributes":{
						"POSITION":4,
						"NORMAL":5,
						"TEXCOORD_0":6
					},
					"indices":7
				}
			]
		}
	],
	"accessors":[
		{
			"bufferView":0,
			"componentType":5126,
			"count":494,
			"max":[
				1,
				1,
				8.742278012618954e-09
			],
			"min":[
				-1,
				-1,
				-1
			],
			"type":"VEC3"
		},
		{
			"bufferView":1,
			"componentType":5126,
			"count":494,
			"type":"VEC3"
		},
		{
			"bufferView":2,
			"componentType":5126,
			"count":494,
			"type":"VEC2"
		},
		{
			"bufferView":3,
			"componentType":5123,
			"count":960,
			"type":"SCALAR"
		},
		{
			"bufferView":4,
			"componentType":5126,
			"count":919,
			"max":[
				2.8188974857330322,
				0.9000000357627869,
				-0.4769262671470642
			],
			"min":[
				0.5651151537895203,
				-0.9000002145767212,
				-1.9300143718719482
			],
			"type":"VEC3"
		},
		{
			"bufferView":5,
			"componentType":5126,
			"count":919,
			"type":"VEC3"
		},
		{
			"bufferView":6,
			"componentType":5126,
			"count":919,
			"type":"VEC2"
		},
		{
			"bufferView":7,
			"componentType":5123,
			"count":2364,
			"type":"SCALAR"
		}
	],
	"bufferViews":[
		{
			"buffer":0,
			"byteLength":5928,
			"byteOffset":0,
			"target":34962
		},
		{
			"buffer":0,
			"byteLength":5928,
			"byteOffset":5928,
			"target":34962
		},
		{
			"buffer":0,
			"byteLength":3952,
			"byteOffset":11856,
			"target":34962
		},
		{
			"buffer":0,
			"byteLength":1920,
			"byteOffset":15808,
			"target":34963
		},
		{
			"buffer":0,
			"byteLength":11028,
			"byteOffset":17728,
			"target":34962
		},
		{
			"buffer":0,
			"byteLength":11028,
			"byteOffset":28756,
			"target":34962
		},
		{
			"buffer":0,
			"byteLength":7352,
			"byteOffset":39784,
			"target":34962
		},
		{
			"buffer":0,
			"byteLength":4728,
			"byteOffset":47136,
			"target":34963
		}
	],
	"buffers":[
		{
			"byteLength":51864,
			"uri":"lever.bin"
		}
	]
}
