{
	"asset":{
		"generator":"Khronos glTF Blender I/O v4.5.51",
		"version":"2.0"
	},
	"scene":0,
	"scenes":[
		{
			"name":"Scene",
			"nodes":[
				0,
				1
			]
		}
	],
	"nodes":[
		{
			"mesh":0,
			"name":"Cylinder"
		},
		{
			"mesh":1,
			"name":"Cylinder.001"
		}
	],
	"meshes":[
		{
			"name":"Cylinder",
			"primitives":[
				{
					"attributes":{
						"POSITION":0,
						"NORMAL":1,
						"TEXCOORD_0":2
					},
					"indices":3
				}
			]
		},
		{
			"name":"Cylinder.001",
			"primitives":[
				{
					"attributes":{
						"POSITION":4,
						"NORMAL":5,
						"TEXCOORD_0":6
					},
					"indices":7
				}
			]
		}
	],
	"accessors":[
		{
			"bufferView":0,
			"componentType":5126,
			"count":744,
			"max":[
				0.2750163674354553,
				1.2750164270401,
				4.535104751586914
			],
			"min":[
				-2.2750163078308105,
				-1.2750164270401,
				-4.597527503967285
			],
			"type":"VEC3"
		},
		{
			"bufferView":1,
			"componentType":5126,
			"count":744,
			"type":"VEC3"
		},
		{
			"bufferView":2,
			"componentType":5126,
			"count":744,
			"type":"VEC2"
		},
		{
			"bufferView":3,
			"componentType":5123,
			"count":1572,
			"type":"SCALAR"
		},
		{
			"bufferView":4,
			"componentType":5126,
			"count":256,
			"max":[
				0,
				1,
				4.315104961395264
			],
			"min":[
				-1.8314695358276367,
				0,
				-4.315104961395264
			],
			"type":"VEC3"
		},
		{
			"bufferView":5,
			"componentType":5126,
			"count":256,
			"type":"VEC3"
		},
		{
			"bufferView":6,
			"componentType":5126,
			"count":256,
			"type":"VEC2"
		},
		{
			"bufferView":7,
			"componentType":5123,
			"count":576,
			"type":"SCALAR"
		}
	],
	"bufferViews":[
		{
			"buffer":0,
			"byteLength":8928,
			"byteOffset":0,
			"target":34962
		},
		{
			"buffer":0,
			"byteLength":8928,
			"byteOffset":8928,
			"target":34962
		},
		{
			"buffer":0,
			"byteLength":5952,
			"byteOffset":17856,
			"target":34962
		},
		{
			"buffer":0,
			"byteLength":3144,
			"byteOffset":23808,
			"target":34963
		},
		{
			"buffer":0,
			"byteLength":3072,
			"byteOffset":26952,
			"target":34962
		},
		{
			"buffer":0,
			"byteLength":3072,
			"byteOffset":30024,
			"target":34962
		},
		{
			"buffer":0,
			"byteLength":2048,
			"byteOffset":33096,
			"target":34962
		},
		{
			"buffer":0,
			"byteLength":1152,
			"byteOffset":35144,
			"target":34963
		}
	],
	"buffers":[
		{
			"byteLength":36296,
			"uri":"missile_loader.bin"
		}
	]
}
