{
	"asset":{
		"generator":"Khronos glTF Blender I/O v4.5.51",
		"version":"2.0"
	},
	"scene":0,
	"scenes":[
		{
			"name":"Scene",
			"nodes":[
				0,
				1,
				2,
				3,
				4,
				5,
				6
			]
		}
	],
	"nodes":[
		{
			"mesh":0,
			"name":"Cylinder",
			"rotation":[
				0,
				0,
				-0.7071068286895752,
				0.7071068286895752
			]
		},
		{
			"mesh":1,
			"name":"Plane"
		},
		{
			"mesh":2,
			"name":"Cylinder.001",
			"rotation":[
				0,
				0,
				-0.7071068286895752,
				0.7071068286895752
			]
		},
		{
			"mesh":3,
			"name":"Cylinder.002",
			"rotation":[
				0,
				0,
				-0.7071068286895752,
				0.7071068286895752
			]
		},
		{
			"mesh":4,
			"name":"Cylinder.003",
			"rotation":[
				0,
				0,
				-0.7071068286895752,
				0.7071068286895752
			]
		},
		{
			"mesh":5,
			"name":"Cylinder.004",
			"rotation":[
				0,
				0,
				-0.7071068286895752,
				0.7071068286895752
			]
		},
		{
			"mesh":6,
			"name":"Cylinder.005",
			"rotation":[
				0,
				0,
				-0.7071068286895752,
				0.7071068286895752
			]
		}
	],
	"animations":[
		{
			"channels":[
				{
					"sampler":0,
					"target":{
						"node":0,
						"path":"translation"
					}
				},
				{
					"sampler":1,
					"target":{
						"node":0,
						"path":"rotation"
					}
				},
				{
					"sampler":2,
					"target":{
						"node":0,
						"path":"scale"
					}
				}
			],
			"name":"CylinderAction",
			"samplers":[
				{
					"input":26,
					"interpolation":"LINEAR",
					"output":27
				},
				{
					"input":26,
					"interpolation":"LINEAR",
					"output":28
				},
				{
					"input":26,
					"interpolation":"LINEAR",
					"output":29
				}
			]
		},
		{
			"channels":[
				{
					"sampler":0,
					"target":{
						"node":2,
						"path":"translation"
					}
				},
				{
					"sampler":1,
					"target":{
						"node":2,
						"path":"rotation"
					}
				},
				{
					"sampler":2,
					"target":{
						"node":2,
						"path":"scale"
					}
				}
			],
			"name":"CylinderAction.001",
			"samplers":[
				{
					"input":26,
					"interpolation":"LINEAR",
					"output":27
				},
				{
					"input":26,
					"interpolation":"LINEAR",
					"output":28
				},
				{
					"input":26,
					"interpolation":"LINEAR",
					"output":29
				}
			]
		},
		{
			"channels":[
				{
					"sampler":0,
					"target":{
						"node":3,
						"path":"translation"
					}
				},
				{
					"sampler":1,
					"target":{
						"node":3,
						"path":"rotation"
					}
				},
				{
					"sampler":2,
					"target":{
						"node":3,
						"path":"scale"
					}
				}
			],
			"name":"CylinderAction.002",
			"samplers":[
				{
					"input":26,
					"interpolation":"LINEAR",
					"output":27
				},
				{
					"input":26,
					"interpolation":"LINEAR",
					"output":28
				},
				{
					"input":26,
					"interpolation":"LINEAR",
					"output":29
				}
			]
		},
		{
			"channels":[
				{
					"sampler":0,
					"target":{
						"node":4,
						"path":"translation"
					}
				},
				{
					"sampler":1,
					"target":{
						"node":4,
						"path":"rotation"
					}
				},
				{
					"sampler":2,
					"target":{
						"node":4,
						"path":"scale"
					}
				}
			],
			"name":"CylinderAction.003",
			"samplers":[
				{
					"input":26,
					"interpolation":"LINEAR",
					"output":27
				},
				{
					"input":26,
					"interpolation":"LINEAR",
					"output":28
				},
				{
					"input":26,
					"interpolation":"LINEAR",
					"output":29
				}
			]
		},
		{
			"channels":[
				{
					"sampler":0,
					"target":{
						"node":5,
						"path":"translation"
					}
				},
				{
					"sampler":1,
					"target":{
						"node":5,
						"path":"rotation"
					}
				},
				{
					"sampler":2,
					"target":{
						"node":5,
						"path":"scale"
					}
				}
			],
			"name":"CylinderAction.004",
			"samplers":[
				{
					"input":26,
					"interpolation":"LINEAR",
					"output":27
				},
				{
					"input":26,
					"interpolation":"LINEAR",
					"output":28
				},
				{
					"input":26,
					"interpolation":"LINEAR",
					"output":29
				}
			]
		},
		{
			"channels":[
				{
					"sampler":0,
					"target":{
						"node":6,
						"path":"translation"
					}
				},
				{
					"sampler":1,
					"target":{
						"node":6,
						"path":"rotation"
					}
				},
				{
					"sampler":2,
					"target":{
						"node":6,
						"path":"scale"
					}
				}
			],
			"name":"CylinderAction.005",
			"samplers":[
				{
					"input":26,
					"interpolation":"LINEAR",
					"output":27
				},
				{
					"input":26,
					"interpolation":"LINEAR",
					"output":28
				},
				{
					"input":26,
					"interpolation":"LINEAR",
					"output":29
				}
			]
		}
	],
	"meshes":[
		{
			"name":"Cylinder",
			"primitives":[
				{
					"attributes":{
						"POSITION":0,
						"NORMAL":1,
						"TEXCOORD_0":2
					},
					"indices":3
				}
			]
		},
		{
			"name":"Plane",
			"primitives":[
				{
					"attributes":{
						"POSITION":4,
						"NORMAL":5,
						"TEXCOORD_0":6
					},
					"indices":7
				}
			]
		},
		{
			"name":"Cylinder.001",
			"primitives":[
				{
					"attributes":{
						"POSITION":8,
						"NORMAL":9,
						"TEXCOORD_0":10
					},
					"indices":11
				}
			]
		},
		{
			"name":"Cylinder.002",
			"primitives":[
				{
					"attributes":{
						"POSITION":12,
						"NORMAL":13,
						"TEXCOORD_0":14
					},
					"indices":15
				}
			]
		},
		{
			"name":"Cylinder.003",
			"primitives":[
				{
					"attributes":{
						"POSITION":16,
						"NORMAL":17,
						"TEXCOORD_0":18
					},
					"indices":15
				}
			]
		},
		{
			"name":"Cylinder.004",
			"primitives":[
				{
					"attributes":{
						"POSITION":19,
						"NORMAL":20,
						"TEXCOORD_0":21
					},
					"indices":15
				}
			]
		},
		{
			"name":"Cylinder.005",
			"primitives":[
				{
					"attributes":{
						"POSITION":22,
						"NORMAL":23,
						"TEXCOORD_0":24
					},
					"indices":25
				}
			]
		}
	],
	"accessors":[
		{
			"bufferView":0,
			"componentType":5126,
			"count":430,
			"max":[
				1.0000001192092896,
				0.21538691222667694,
				1
			],
			"min":[
				-1.0000001192092896,
				-0.1928311586380005,
				-1
			],
			"type":"VEC3"
		},
		{
			"bufferView":1,
			"componentType":5126,
			"count":430,
			"type":"VEC3"
		},
		{
			"bufferView":2,
			"componentType":5126,
			"count":430,
			"type":"VEC2"
		},
		{
			"bufferView":3,
			"componentType":5123,
			"count":894,
			"type":"SCALAR"
		},
		{
			"bufferView":4,
			"componentType":5126,
			"count":196,
			"max":[
				0.3242660164833069,
				1.8693114519119263,
				0.49226295948028564
			],
			"min":[
				-0.3386901617050171,
				0,
				-0.49226295948028564
			],
			"type":"VEC3"
		},
		{
			"bufferView":5,
			"componentType":5126,
			"count":196,
			"type":"VEC3"
		},
		{
			"bufferView":6,
			"componentType":5126,
			"count":196,
			"type":"VEC2"
		},
		{
			"bufferView":7,
			"componentType":5123,
			"count":444,
			"type":"SCALAR"
		},
		{
			"bufferView":8,
			"componentType":5126,
			"count":6,
			"max":[
				0.3516227602958679,
				0.19283103942871094,
				0
			],
			"min":[
				-0.3516225814819336,
				0.19283103942871094,
				-0.9188342690467834
			],
			"type":"VEC3"
		},
		{
			"bufferView":9,
			"componentType":5126,
			"count":6,
			"type":"VEC3"
		},
		{
			"bufferView":10,
			"componentType":5126,
			"count":6,
			"type":"VEC2"
		},
		{
			"bufferView":11,
			"componentType":5123,
			"count":12,
			"type":"SCALAR"
		},
		{
			"bufferView":12,
			"componentType":5126,
			"count":6,
			"max":[
				0,
				0.1928311586380005,
				0
			],
			"min":[
				-0.8488920331001282,
				0.19283103942871094,
				-0.8488921523094177
			],
			"type":"VEC3"
		},
		{
			"bufferView":13,
			"componentType":5126,
			"count":6,
			"type":"VEC3"
		},
		{
			"bufferView":14,
			"componentType":5126,
			"count":6,
			"type":"VEC2"
		},
		{
			"bufferView":15,
			"componentType":5123,
			"count":12,
			"type":"SCALAR"
		},
		{
			"bufferView":16,
			"componentType":5126,
			"count":6,
			"max":[
				0,
				0.1928311586380005,
				0.35162267088890076
			],
			"min":[
				-0.9188341498374939,
				0.19283103942871094,
				-0.35162267088890076
			],
			"type":"VEC3"
		},
		{
			"bufferView":17,
			"componentType":5126,
			"count":6,
			"type":"VEC3"
		},
		{
			"bufferView":18,
			"componentType":5126,
			"count":6,
			"type":"VEC2"
		},
		{
			"bufferView":19,
			"componentType":5126,
			"count":6,
			"max":[
				0,
				0.1928311586380005,
				0.8488921523094177
			],
			"min":[
				-0.8488920331001282,
				0.19283103942871094,
				0
			],
			"type":"VEC3"
		},
		{
			"bufferView":20,
			"componentType":5126,
			"count":6,
			"type":"VEC3"
		},
		{
			"bufferView":21,
			"componentType":5126,
			"count":6,
			"type":"VEC2"
		},
		{
			"bufferView":22,
			"componentType":5126,
			"count":6,
			"max":[
				0.3516227602958679,
				0.19283103942871094,
				0.9188342690467834
			],
			"min":[
				-0.3516225814819336,
				0.19283103942871094,
				0
			],
			"type":"VEC3"
		},
		{
			"bufferView":23,
			"componentType":5126,
			"count":6,
			"type":"VEC3"
		},
		{
			"bufferView":24,
			"componentType":5126,
			"count":6,
			"type":"VEC2"
		},
		{
			"bufferView":25,
			"componentType":5123,
			"count":12,
			"type":"SCALAR"
		},
		{
			"bufferView":26,
			"componentType":5126,
			"count":1,
			"max":[
				0.041666666666666664
			],
			"min":[
				0.041666666666666664
			],
			"type":"SCALAR"
		},
		{
			"bufferView":27,
			"componentType":5126,
			"count":1,
			"type":"VEC3"
		},
		{
			"bufferView":28,
			"componentType":5126,
			"count":1,
			"type":"VEC4"
		},
		{
			"bufferView":29,
			"componentType":5126,
			"count":1,
			"type":"VEC3"
		}
	],
	"bufferViews":[
		{
			"buffer":0,
			"byteLength":5160,
			"byteOffset":0,
			"target":34962
		},
		{
			"buffer":0,
			"byteLength":5160,
			"byteOffset":5160,
			"target":34962
		},
		{
			"buffer":0,
			"byteLength":3440,
			"byteOffset":10320,
			"target":34962
		},
		{
			"buffer":0,
			"byteLength":1788,
			"byteOffset":13760,
			"target":34963
		},
		{
			"buffer":0,
			"byteLength":2352,
			"byteOffset":15548,
			"target":34962
		},
		{
			"buffer":0,
			"byteLength":2352,
			"byteOffset":17900,
			"target":34962
		},
		{
			"buffer":0,
			"byteLength":1568,
			"byteOffset":20252,
			"target":34962
		},
		{
			"buffer":0,
			"byteLength":888,
			"byteOffset":21820,
			"target":34963
		},
		{
			"buffer":0,
			"byteLength":72,
			"byteOffset":22708,
			"target":34962
		},
		{
			"buffer":0,
			"byteLength":72,
			"byteOffset":22780,
			"target":34962
		},
		{
			"buffer":0,
			"byteLength":48,
			"byteOffset":22852,
			"target":34962
		},
		{
			"buffer":0,
			"byteLength":24,
			"byteOffset":22900,
			"target":34963
		},
		{
			"buffer":0,
			"byteLength":72,
			"byteOffset":22924,
			"target":34962
		},
		{
			"buffer":0,
			"byteLength":72,
			"byteOffset":22996,
			"target":34962
		},
		{
			"buffer":0,
			"byteLength":48,
			"byteOffset":23068,
			"target":34962
		},
		{
			"buffer":0,
			"byteLength":24,
			"byteOffset":23116,
			"target":34963
		},
		{
			"buffer":0,
			"byteLength":72,
			"byteOffset":23140,
			"target":34962
		},
		{
			"buffer":0,
			"byteLength":72,
			"byteOffset":23212,
			"target":34962
		},
		{
			"buffer":0,
			"byteLength":48,
			"byteOffset":23284,
			"target":34962
		},
		{
			"buffer":0,
			"byteLength":72,
			"byteOffset":23332,
			"target":34962
		},
		{
			"buffer":0,
			"byteLength":72,
			"byteOffset":23404,
			"target":34962
		},
		{
			"buffer":0,
			"byteLength":48,
			"byteOffset":23476,
			"target":34962
		},
		{
			"buffer":0,
			"byteLength":72,
			"byteOffset":23524,
			"target":34962
		},
		{
			"buffer":0,
			"byteLength":72,
			"byteOffset":23596,
			"target":34962
		},
		{
			"buffer":0,
			"byteLength":48,
			"byteOffset":23668,
			"target":34962
		},
		{
			"buffer":0,
			"byteLength":24,
			"byteOffset":23716,
			"target":34963
		},
		{
			"buffer":0,
			"byteLength":4,
			"byteOffset":23740
		},
		{
			"buffer":0,
			"byteLength":12,
			"byteOffset":23744
		},
		{
			"buffer":0,
			"byteLength":16,
			"byteOffset":23756
		},
		{
			"buffer":0,
			"byteLength":12,
			"byteOffset":23772
		}
	],
	"buffers":[
		{
			"byteLength":23784,
			"uri":"pressure_valve.bin"
		}
	]
}
