{
	"asset":{
		"generator":"Khronos glTF Blender I/O v4.5.51",
		"version":"2.0"
	},
	"scene":0,
	"scenes":[
		{
			"name":"Scene",
			"nodes":[
				0,
				1,
				2
			]
		}
	],
	"nodes":[
		{
			"mesh":0,
			"name":"Cylinder",
			"rotation":[
				0.7071068286895752,
				0,
				0,
				0.7071068286895752
			],
			"scale":[
				0.5078521966934204,
				0.8264999389648438,
				0.5078521966934204
			]
		},
		{
			"mesh":1,
			"name":"Sphere",
			"scale":[
				0.5083469152450562,
				0.5083469152450562,
				0.5083469152450562
			],
			"translation":[
				0,
				0,
				1.7836520671844482
			]
		},
		{
			"mesh":2,
			"name":"Cylinder.001",
			"rotation":[
				0.7071068286895752,
				0,
				0,
				0.7071068286895752
			],
			"scale":[
				0.5078521966934204,
				0.8264999389648438,
				0.5078521966934204
			]
		}
	],
	"meshes":[
		{
			"name":"Cylinder",
			"primitives":[
				{
					"attributes":{
						"POSITION":0,
						"NORMAL":1,
						"TEXCOORD_0":2
					},
					"indices":3
				}
			]
		},
		{
			"name":"Sphere",
			"primitives":[
				{
					"attributes":{
						"POSITION":4,
						"NORMAL":5,
						"TEXCOORD_0":6
					},
					"indices":7
				}
			]
		},
		{
			"name":"Cylinder.001",
			"primitives":[
				{
					"attributes":{
						"POSITION":8,
						"NORMAL":9,
						"TEXCOORD_0":10
					},
					"indices":11
				}
			]
		}
	],
	"accessors":[
		{
			"bufferView":0,
			"componentType":5126,
			"count":1031,
			"max":[
				1.2650169134140015,
				1,
				1.2650173902511597
			],
			"min":[
				-1.2650169134140015,
				-1,
				-1.265017032623291
			],
			"type":"VEC3"
		},
		{
			"bufferView":1,
			"componentType":5126,
			"count":1031,
			"type":"VEC3"
		},
		{
			"bufferView":2,
			"componentType":5126,
			"count":1031,
			"type":"VEC2"
		},
		{
			"bufferView":3,
			"componentType":5123,
			"count":3084,
			"type":"SCALAR"
		},
		{
			"bufferView":4,
			"componentType":5126,
			"count":1984,
			"max":[
				0.9999997019767761,
				1,
				-0.8828725218772888
			],
			"min":[
				-0.9999990463256836,
				-1.000973105430603,
				-6.134588241577148
			],
			"type":"VEC3"
		},
		{
			"bufferView":5,
			"componentType":5126,
			"count":1984,
			"type":"VEC3"
		},
		{
			"bufferView":6,
			"componentType":5126,
			"count":1984,
			"type":"VEC2"
		},
		{
			"bufferView":7,
			"componentType":5123,
			"count":2880,
			"type":"SCALAR"
		},
		{
			"bufferView":8,
			"componentType":5126,
			"count":128,
			"max":[
				1,
				0.8199999928474426,
				1
			],
			"min":[
				-1,
				-0.800000011920929,
				-1
			],
			"type":"VEC3"
		},
		{
			"bufferView":9,
			"componentType":5126,
			"count":128,
			"type":"VEC3"
		},
		{
			"bufferView":10,
			"componentType":5126,
			"count":128,
			"type":"VEC2"
		},
		{
			"bufferView":11,
			"componentType":5123,
			"count":192,
			"type":"SCALAR"
		}
	],
	"bufferViews":[
		{
			"buffer":0,
			"byteLength":12372,
			"byteOffset":0,
			"target":34962
		},
		{
			"buffer":0,
			"byteLength":12372,
			"byteOffset":12372,
			"target":34962
		},
		{
			"buffer":0,
			"byteLength":8248,
			"byteOffset":24744,
			"target":34962
		},
		{
			"buffer":0,
			"byteLength":6168,
			"byteOffset":32992,
			"target":34963
		},
		{
			"buffer":0,
			"byteLength":23808,
			"byteOffset":39160,
			"target":34962
		},
		{
			"buffer":0,
			"byteLength":23808,
			"byteOffset":62968,
			"target":34962
		},
		{
			"buffer":0,
			"byteLength":15872,
			"byteOffset":86776,
			"target":34962
		},
		{
			"buffer":0,
			"byteLength":5760,
			"byteOffset":102648,
			"target":34963
		},
		{
			"buffer":0,
			"byteLength":1536,
			"byteOffset":108408,
			"target":34962
		},
		{
			"buffer":0,
			"byteLength":1536,
			"byteOffset":109944,
			"target":34962
		},
		{
			"buffer":0,
			"byteLength":1024,
			"byteOffset":111480,
			"target":34962
		},
		{
			"buffer":0,
			"byteLength":384,
			"byteOffset":112504,
			"target":34963
		}
	],
	"buffers":[
		{
			"byteLength":112888,
			"uri":"tank.bin"
		}
	]
}
