{
	"asset":{
		"generator":"Khronos glTF Blender I/O v4.5.51",
		"version":"2.0"
	},
	"scene":0,
	"scenes":[
		{
			"name":"Scene",
			"nodes":[
				0,
				1
			]
		}
	],
	"nodes":[
		{
			"mesh":0,
			"name":"Cylinder",
			"rotation":[
				0,
				-0.7071068286895752,
				-0.7071068286895752,
				0
			],
			"scale":[
				-0.18518394231796265,
				-1.0164891481399536,
				-0.18518394231796265
			]
		},
		{
			"mesh":1,
			"name":"Cylinder.001",
			"rotation":[
				0,
				0,
				-0.7071068286895752,
				0.7071068286895752
			],
			"scale":[
				-0.14685368537902832,
				-0.14685368537902832,
				-0.14685368537902832
			],
			"translation":[
				0.6421245336532593,
				0,
				0
			]
		}
	],
	"meshes":[
		{
			"name":"Cylinder",
			"primitives":[
				{
					"attributes":{
						"POSITION":0,
						"NORMAL":1,
						"TEXCOORD_0":2
					},
					"indices":3
				}
			]
		},
		{
			"name":"Cylinder.001",
			"primitives":[
				{
					"attributes":{
						"POSITION":4,
						"NORMAL":5,
						"TEXCOORD_0":6
					},
					"indices":7
				}
			]
		}
	],
	"accessors":[
		{
			"bufferView":0,
			"componentType":5126,
			"count":773,
			"max":[
				1.4999998807907104,
				1,
				1.4999998807907104
			],
			"min":[
				-1.4999998807907104,
				-1,
				-1.4999998807907104
			],
			"type":"VEC3"
		},
		{
			"bufferView":1,
			"componentType":5126,
			"count":773,
			"type":"VEC3"
		},
		{
			"bufferView":2,
			"componentType":5126,
			"count":773,
			"type":"VEC2"
		},
		{
			"bufferView":3,
			"componentType":5123,
			"count":1908,
			"type":"SCALAR"
		},
		{
			"bufferView":4,
			"componentType":5126,
			"count":1314,
			"max":[
				1.2931891679763794,
				1.2830623388290405,
				1.2931891679763794
			],
			"min":[
				-2.8539230823516846,
				-1.9433561563491821,
				-1.2931891679763794
			],
			"type":"VEC3"
		},
		{
			"bufferView":5,
			"componentType":5126,
			"count":1314,
			"type":"VEC3"
		},
		{
			"bufferView":6,
			"componentType":5126,
			"count":1314,
			"type":"VEC2"
		},
		{
			"bufferView":7,
			"componentType":5123,
			"count":2292,
			"type":"SCALAR"
		}
	],
	"bufferViews":[
		{
			"buffer":0,
			"byteLength":9276,
			"byteOffset":0,
			"target":34962
		},
		{
			"buffer":0,
			"byteLength":9276,
			"byteOffset":9276,
			"target":34962
		},
		{
			"buffer":0,
			"byteLength":6184,
			"byteOffset":18552,
			"target":34962
		},
		{
			"buffer":0,
			"byteLength":3816,
			"byteOffset":24736,
			"target":34963
		},
		{
			"buffer":0,
			"byteLength":15768,
			"byteOffset":28552,
			"target":34962
		},
		{
			"buffer":0,
			"byteLength":15768,
			"byteOffset":44320,
			"target":34962
		},
		{
			"buffer":0,
			"byteLength":10512,
			"byteOffset":60088,
			"target":34962
		},
		{
			"buffer":0,
			"byteLength":4584,
			"byteOffset":70600,
			"target":34963
		}
	],
	"buffers":[
		{
			"byteLength":75184,
			"uri":"pipes.bin"
		}
	]
}
